<?xml version="1.0" encoding="utf-8"?>
<!-- Generator: Adobe Illustrator 18.0.0, SVG Export Plug-In . SVG Version: 6.00 Build 0)  -->
<svg version="1.2" baseProfile="tiny" id="Layer_1" xmlns="http://www.w3.org/2000/svg" xmlns:xlink="http://www.w3.org/1999/xlink"
	 x="0px" y="0px" width="1200px" height="1200px" viewBox="0 0 1200 1200" xml:space="preserve">
<image width="2560" height="1080" xlink:href="DC48B64C3D2A9C37.jpg"  transform="matrix(1 0 0 1 -7592 -7594)">
</image>
<g>
	<polygon fill="none" stroke="#000000" stroke-miterlimit="10" points="614.5,462.1 621.3,460.2 622.1,452.8 615.3,449.3 608,451.5 
		607.7,458.3 	"/>
</g>
<g>
	<polygon fill="none" stroke="#000000" stroke-miterlimit="10" points="627.7,463.7 634.7,462.8 636.5,455.7 630.1,451.3 
		622.1,452.8 621.3,460.2 	"/>
</g>
<g>
	<polygon fill="none" stroke="#000000" stroke-miterlimit="10" points="639.7,467.5 647.6,467.1 650,460.2 643.7,454 636.5,455.7 
		634.7,462.8 	"/>
</g>
<g>
	<polygon fill="none" stroke="#000000" stroke-miterlimit="10" points="652.8,472.6 659.3,472.1 663.2,465.4 658.2,459.5 650,460.2 
		647.6,467.1 	"/>
</g>
<g>
	<polygon fill="none" stroke="#000000" stroke-miterlimit="10" points="663.8,477.5 671.7,478.7 675.8,472.6 670.9,466 663.2,465.4 
		659.3,472.1 	"/>
</g>
<g>
	<polygon fill="none" stroke="#000000" stroke-miterlimit="10" points="674.9,485.3 682.9,486.2 687.7,480.3 683.3,473.7 
		675.8,472.6 671.7,478.7 	"/>
</g>
<g>
	<polygon fill="none" stroke="#000000" stroke-miterlimit="10" points="686,493 693.4,494.9 699.2,489.5 695.7,482 687.7,480.3 
		682.9,486.2 	"/>
</g>
<g>
	<polygon fill="none" stroke="#000000" stroke-miterlimit="10" points="703,505.1 709.1,499.6 706.4,492.5 699.2,489.5 693.4,494.9 
		696.2,501.5 	"/>
</g>
<g>
	<polygon fill="none" stroke="#000000" stroke-miterlimit="10" points="705,511.9 712.3,515.2 718.5,511.3 716.4,503 709.1,499.6 
		703,505.1 	"/>
</g>
<g>
	<polygon fill="none" stroke="#000000" stroke-miterlimit="10" points="713.3,523 719.3,526.9 725.5,523.5 724.9,515.9 718.5,511.3 
		712.3,515.2 	"/>
</g>
<g>
	<polygon fill="none" stroke="#000000" stroke-miterlimit="10" points="719.7,535.2 725.7,540.3 732.5,537.2 732.9,528.2 
		725.5,523.5 719.3,526.9 	"/>
</g>
<g>
	<polygon fill="none" stroke="#000000" stroke-miterlimit="10" points="726.3,547.2 731.2,552.6 738.5,550.7 739.3,542.6 
		732.5,537.2 725.7,540.3 	"/>
</g>
<g>
	<polygon fill="none" stroke="#000000" stroke-miterlimit="10" points="730.7,559.8 735.3,565.4 743.3,564.5 744.3,556.8 
		738.5,550.7 731.2,552.6 	"/>
</g>
<g>
	<polygon fill="none" stroke="#000000" stroke-miterlimit="10" points="733.3,572.5 738.5,578.3 746.4,577.5 747.9,570.8 
		743.3,564.5 735.3,565.4 	"/>
</g>
<g>
	<polygon fill="none" stroke="#000000" stroke-miterlimit="10" points="735.3,585.7 740,591.8 747.2,591.8 750.7,584.4 746.4,577.5 
		738.5,578.3 	"/>
</g>
<g>
	<polygon fill="none" stroke="#000000" stroke-miterlimit="10" points="737.2,598 740,605.5 747.2,606 750.7,599.2 747.2,591.8 
		740,591.8 	"/>
</g>
<g>
	<polygon fill="none" stroke="#000000" stroke-miterlimit="10" points="736,612.2 738.3,619.3 746.6,620.5 750.2,613.7 747.2,606 
		740,605.5 	"/>
</g>
<g>
	<polygon fill="none" stroke="#000000" stroke-miterlimit="10" points="733.5,625.3 735.7,632.8 743,634.5 748.6,628.9 746.6,620.5 
		738.3,619.3 	"/>
</g>
<g>
	<polygon fill="none" stroke="#000000" stroke-miterlimit="10" points="730.7,638.2 731.9,646.3 738.3,648.5 743.9,643.4 743,634.5 
		735.7,632.8 	"/>
</g>
<g>
	<polygon fill="none" stroke="#000000" stroke-miterlimit="10" points="726.5,650.7 726.2,659.2 732.8,662.3 739.1,657 738.3,648.5 
		731.9,646.3 	"/>
</g>
<g>
	<polygon fill="none" stroke="#000000" stroke-miterlimit="10" points="720.5,663.9 720.3,670.4 726,674.5 732.4,670.1 732.8,662.3 
		726.2,659.2 	"/>
</g>
<g>
	<polygon fill="none" stroke="#000000" stroke-miterlimit="10" points="725.2,682.3 726,674.5 720.3,670.4 713.4,674.5 712.5,681.8 
		718.6,686.2 	"/>
</g>
<g>
	<polygon fill="none" stroke="#000000" stroke-miterlimit="10" points="712.5,681.8 706,684.7 704.2,692.3 709.3,698.1 716.3,694.7 
		718.6,686.2 	"/>
</g>
<g>
	<polygon fill="none" stroke="#000000" stroke-miterlimit="10" points="697.9,694.5 693.5,702 699.2,707.1 706.6,704.6 709.3,698.1 
		704.2,692.3 	"/>
</g>
<g>
	<polygon fill="none" stroke="#000000" stroke-miterlimit="10" points="687,703.1 684,710.8 688.4,716.8 696.3,714.2 699.2,707.1 
		693.5,702 	"/>
</g>
<g>
	<polygon fill="none" stroke="#000000" stroke-miterlimit="10" points="684,710.8 677,711.5 673.7,717.9 676.1,723.9 684.2,723.4 
		688.4,716.8 	"/>
</g>
<g>
	<polygon fill="none" stroke="#000000" stroke-miterlimit="10" points="665.2,718.7 661.1,724.2 663.8,730.3 672,730.3 676.1,723.9 
		673.7,717.9 	"/>
</g>
<g>
	<polygon fill="none" stroke="#000000" stroke-miterlimit="10" points="653.9,724.2 649.5,729.3 650.4,736.4 659.4,736.9 
		663.8,730.3 661.1,724.2 	"/>
</g>
<g>
	<polygon fill="none" stroke="#000000" stroke-miterlimit="10" points="641.7,728.8 636.4,733.5 637.2,740.7 645.2,742.2 
		650.4,736.4 649.5,729.3 	"/>
</g>
<g>
	<polygon fill="none" stroke="#000000" stroke-miterlimit="10" points="628.8,732.5 623,736.8 623.5,743 631.6,745.8 637.2,740.7 
		636.4,733.5 	"/>
</g>
<g>
	<polygon fill="none" stroke="#000000" stroke-miterlimit="10" points="615.5,734.1 609.2,736.8 609.7,744.9 617.1,748.1 623.5,743 
		623,736.8 	"/>
</g>
<g>
	<polygon fill="none" stroke="#000000" stroke-miterlimit="10" points="602.4,734.7 596,737.4 595.2,745.3 602.9,749 609.7,744.9 
		609.2,736.8 	"/>
</g>
<g>
	<polygon fill="none" stroke="#000000" stroke-miterlimit="10" points="589.5,733.5 582,736 581.2,743.8 586.8,748 595.2,745.3 
		596,737.4 	"/>
</g>
<g>
	<polygon fill="none" stroke="#000000" stroke-miterlimit="10" points="576.1,732.1 568.1,733 566.7,740 573.1,745.3 581.2,743.8 
		582,736 	"/>
</g>
<g>
	<polygon fill="none" stroke="#000000" stroke-miterlimit="10" points="563,728.4 555.9,729.3 553,736.3 558.6,741.8 566.7,740 
		568.1,733 	"/>
</g>
<g>
	<polygon fill="none" stroke="#000000" stroke-miterlimit="10" points="551.2,723.9 542.8,724.1 539.7,730.8 545.2,737.1 553,736.3 
		555.9,729.3 	"/>
</g>
<g>
	<polygon fill="none" stroke="#000000" stroke-miterlimit="10" points="538.3,718.2 531.4,717.8 526.7,722.9 531.5,730 539.7,730.8 
		542.8,724.1 	"/>
</g>
<g>
	<polygon fill="none" stroke="#000000" stroke-miterlimit="10" points="527.4,711.1 519.4,710.2 515.1,715.7 519.2,722.6 
		526.7,722.9 531.4,717.8 	"/>
</g>
<g>
	<polygon fill="none" stroke="#000000" stroke-miterlimit="10" points="509.8,701.1 503.2,706.6 507.5,713.8 515.1,715.7 
		519.4,710.2 516.9,703.2 	"/>
</g>
<g>
	<polygon fill="none" stroke="#000000" stroke-miterlimit="10" points="509.8,701.1 507.5,695 499.7,691.8 493.7,696.3 496.3,704.1 
		503.2,706.6 	"/>
</g>
<g>
	<polygon fill="none" stroke="#000000" stroke-miterlimit="10" points="499.7,691.8 497.1,684.5 490,680.9 485.2,685.2 485.9,693.1 
		493.7,696.3 	"/>
</g>
<g>
	<polygon fill="none" stroke="#000000" stroke-miterlimit="10" points="488.9,673.7 482.4,670.9 477.1,673.1 477.6,681.1 
		485.2,685.2 490,680.9 	"/>
</g>
<g>
	<polygon fill="none" stroke="#000000" stroke-miterlimit="10" points="482.1,663.2 475.8,658.3 470,661.1 470,668.9 477.1,673.1 
		482.4,670.9 	"/>
</g>
<g>
	<polygon fill="none" stroke="#000000" stroke-miterlimit="10" points="476.2,651.2 469.9,644.8 463.2,648.2 463.4,656.2 470,661.1 
		475.8,658.3 	"/>
</g>
<g>
	<polygon fill="none" stroke="#000000" stroke-miterlimit="10" points="471.1,638.6 466.5,632.1 459.3,634.6 458.7,642.4 
		463.2,648.2 469.9,644.8 	"/>
</g>
<g>
	<polygon fill="none" stroke="#000000" stroke-miterlimit="10" points="467.7,625.5 463.5,618.3 456.5,618.8 454.2,627.2 
		459.3,634.6 466.5,632.1 	"/>
</g>
<g>
	<polygon fill="none" stroke="#000000" stroke-miterlimit="10" points="466.2,611.9 461.5,605.5 454.8,605.8 451.9,612.5 
		456.5,618.8 463.5,618.3 	"/>
</g>
<g>
	<polygon fill="none" stroke="#000000" stroke-miterlimit="10" points="465.4,598 461.9,591.3 453.8,590.7 451.5,598 454.8,605.8 
		461.5,605.5 	"/>
</g>
<g>
	<polygon fill="none" stroke="#000000" stroke-miterlimit="10" points="465.4,584.6 463.1,576.9 456.2,576.2 451.5,583.2 
		453.8,590.7 461.9,591.3 	"/>
</g>
<g>
	<polygon fill="none" stroke="#000000" stroke-miterlimit="10" points="467,572.1 465.2,565 458.5,563.2 453.2,568.7 456.2,576.2 
		463.1,576.9 	"/>
</g>
<g>
	<polygon fill="none" stroke="#000000" stroke-miterlimit="10" points="470.4,559.6 469.2,551.2 461.8,549.3 456.7,555.2 
		458.5,563.2 465.2,565 	"/>
</g>
<g>
	<polygon fill="none" stroke="#000000" stroke-miterlimit="10" points="474.1,546.7 473.9,538.7 467.3,535.9 461.7,541 461.8,549.3 
		469.2,551.2 	"/>
</g>
<g>
	<polygon fill="none" stroke="#000000" stroke-miterlimit="10" points="480,534.2 480.1,525.7 474.1,522.5 467.9,527.2 467.3,535.9 
		473.9,538.7 	"/>
</g>
<g>
	<polygon fill="none" stroke="#000000" stroke-miterlimit="10" points="486.3,522.3 487.8,514.3 482.2,510.4 475.4,514.8 
		474.1,522.5 480.1,525.7 	"/>
</g>
<g>
	<polygon fill="none" stroke="#000000" stroke-miterlimit="10" points="494.6,511.3 496.5,503.7 490.5,498.8 483.3,502.4 
		482.2,510.4 487.8,514.3 	"/>
</g>
<g>
	<polygon fill="none" stroke="#000000" stroke-miterlimit="10" points="505.5,494 500.8,489.2 493.7,491.4 490.5,498.8 496.5,503.7 
		503.7,501.9 	"/>
</g>
<g>
	<polygon fill="none" stroke="#000000" stroke-miterlimit="10" points="505.5,494 513.8,492.5 517,485.9 512.7,479.2 504.3,481.6 
		500.8,489.2 	"/>
</g>
<g>
	<polygon fill="none" stroke="#000000" stroke-miterlimit="10" points="525,484.5 528.5,478 524.3,471.5 516.8,472.4 512.7,479.2 
		517,485.9 	"/>
</g>
<g>
	<polygon fill="none" stroke="#000000" stroke-miterlimit="10" points="535.9,477.8 540.1,472.3 537.1,465.3 529.3,465.2 
		524.3,471.5 528.5,478 	"/>
</g>
<g>
	<polygon fill="none" stroke="#000000" stroke-miterlimit="10" points="548.4,472.2 553.1,466 549.3,459.1 542.6,459 537.1,465.3 
		540.1,472.3 	"/>
</g>
<g>
	<polygon fill="none" stroke="#000000" stroke-miterlimit="10" points="561,466.7 566.3,462.1 565,455.7 556.4,453.7 549.3,459.1 
		553.1,466 	"/>
</g>
<g>
	<polygon fill="none" stroke="#000000" stroke-miterlimit="10" points="574.1,464.2 580.2,460.2 578.8,452.9 571.2,450 565,455.7 
		566.3,462.1 	"/>
</g>
<g>
	<polygon fill="none" stroke="#000000" stroke-miterlimit="10" points="587,462.4 594.1,458.6 593.4,451.5 585.6,448.8 578.8,452.9 
		580.2,460.2 	"/>
</g>
<g>
	<polygon fill="none" stroke="#000000" stroke-miterlimit="10" points="600,461.3 607.7,458.3 608,451.5 600.5,448 593.4,451.5 
		594.1,458.6 	"/>
</g>
<g>
	<polygon fill="none" stroke="#000000" stroke-miterlimit="10" points="706.4,492.5 711.3,487.3 708.4,479.4 699.7,476.8 695.7,482 
		699.2,489.5 	"/>
</g>
<g>
	<polygon fill="none" stroke="#000000" stroke-miterlimit="10" points="719.2,490.4 724.9,485.2 721.9,477.2 713.1,473.6 
		708.4,479.4 711.3,487.3 	"/>
</g>
</svg>
