<?xml version="1.0" encoding="utf-8"?>
<!-- Generator: Adobe Illustrator 18.0.0, SVG Export Plug-In . SVG Version: 6.00 Build 0)  -->
<!DOCTYPE svg PUBLIC "-//W3C//DTD SVG 1.1//EN" "http://www.w3.org/Graphics/SVG/1.1/DTD/svg11.dtd">
<svg version="1.1" id="hexagons_x5F_bien" xmlns="http://www.w3.org/2000/svg" xmlns:xlink="http://www.w3.org/1999/xlink" x="0px"
	 y="0px" viewBox="0 0 1200 1200" enable-background="new 0 0 1200 1200" xml:space="preserve">
<polygon fill="#FFFFFF" stroke="#000000" stroke-miterlimit="10" points="625.3,433 634.6,431.7 636.9,424.6 628,419.4 618.7,421.3 
	617.6,428.7 "/>
<polygon fill="#FFFFFF" stroke="#000000" stroke-miterlimit="10" points="641.8,437 651.3,436.3 653.1,428.1 645.9,423.2 
	636.9,424.6 634.6,431.7 "/>
<polygon fill="#FFFFFF" stroke="#000000" stroke-miterlimit="10" points="656.8,442.3 666.4,441.8 668.7,434.7 662,427.7 
	653.1,428.1 651.3,436.3 "/>
<polygon fill="#FFFFFF" stroke="#000000" stroke-miterlimit="10" points="672.6,448.9 681.7,449.1 685.4,442.5 679.1,434.9 
	668.7,434.7 666.4,441.8 "/>
<polygon fill="#FFFFFF" stroke="#000000" stroke-miterlimit="10" points="686.7,456.1 696.4,457.6 700.2,451.1 695.1,443.4 
	685.4,442.5 681.7,449.1 "/>
<polygon fill="#FFFFFF" stroke="#000000" stroke-miterlimit="10" points="710.1,467.8 714.4,461.9 709.8,453.8 700.2,451.1 
	696.4,457.6 701.1,465.8 "/>
<polygon fill="#FFFFFF" stroke="#000000" stroke-miterlimit="10" points="721.9,479.2 727.6,473.6 724,465 714.4,461.9 710.1,467.8 
	713.1,475.6 "/>
<polygon fill="#FFFFFF" stroke="#000000" stroke-miterlimit="10" points="724.9,487.2 733.5,491.5 739.4,487 737.2,477.9 
	727.6,473.6 721.9,479.2 "/>
<polygon fill="#FFFFFF" stroke="#000000" stroke-miterlimit="10" points="733.5,491.5 735.3,500.5 744,505.6 750,501.4 748.8,492.1 
	739.4,487 "/>
<polygon fill="#FFFFFF" stroke="#000000" stroke-miterlimit="10" points="745.2,514.6 752.3,520.5 759.2,516.1 758.3,506.7 
	750,501.4 744,505.6 "/>
<polygon fill="#FFFFFF" stroke="#000000" stroke-miterlimit="10" points="752.4,529.7 760.1,535.5 767.1,532.1 767.3,522.6 
	759.2,516.1 752.3,520.5 "/>
<polygon fill="#FFFFFF" stroke="#000000" stroke-miterlimit="10" points="759.7,544.8 765.4,552.2 772.9,549.5 773.8,540.7 
	767.1,532.1 760.1,535.5 "/>
<polygon fill="#FFFFFF" stroke="#000000" stroke-miterlimit="10" points="763.7,561 769.6,568.3 777.7,566.9 779.1,557.4 
	772.9,549.5 765.4,552.2 "/>
<polygon fill="#FFFFFF" stroke="#000000" stroke-miterlimit="10" points="767.2,577.2 772.5,584.4 780.3,584.1 782.5,575.4 
	777.7,566.9 769.6,568.3 "/>
<polygon fill="#FFFFFF" stroke="#000000" stroke-miterlimit="10" points="768.9,593.1 773,601.4 780.5,601.4 784,592.5 780.3,584.1 
	772.5,584.4 "/>
<polygon fill="#FFFFFF" stroke="#000000" stroke-miterlimit="10" points="768.5,609.8 772.7,618.7 779.5,619.5 784.2,610.8 
	780.5,601.4 773,601.4 "/>
<polygon fill="#FFFFFF" stroke="#000000" stroke-miterlimit="10" points="766.9,626.5 769.7,635.5 777.2,636.9 782.7,629 
	779.5,619.5 772.7,618.7 "/>
<polygon fill="#FFFFFF" stroke="#000000" stroke-miterlimit="10" points="763.9,642.8 765.3,652.3 772.4,654.2 779,647 777.2,636.9 
	769.7,635.5 "/>
<polygon fill="#FFFFFF" stroke="#000000" stroke-miterlimit="10" points="758.7,658.8 759.2,668.1 766.5,670.4 773.5,663.4 
	772.4,654.2 765.3,652.3 "/>
<polygon fill="#FFFFFF" stroke="#000000" stroke-miterlimit="10" points="752.1,682.8 759,686.3 765.9,680.3 766.5,670.4 
	759.2,668.1 752.5,673.7 "/>
<polygon fill="#FFFFFF" stroke="#000000" stroke-miterlimit="10" points="744.8,687.9 743.8,696.8 749.8,701.3 757.6,695.5 
	759,686.3 752.1,682.8 "/>
<polygon fill="#FFFFFF" stroke="#000000" stroke-miterlimit="10" points="735,701.3 732.7,710.7 739.2,715.5 748.1,710.5 
	749.8,701.3 743.8,696.8 "/>
<polygon fill="#FFFFFF" stroke="#000000" stroke-miterlimit="10" points="724.5,714.2 721.5,722.2 726.7,727.4 736,723.8 
	739.2,715.5 732.7,710.7 "/>
<polygon fill="#FFFFFF" stroke="#000000" stroke-miterlimit="10" points="721.5,722.2 713.2,725.4 709.1,733.5 714.4,739.9 
	723.3,736.8 726.7,727.4 "/>
<polygon fill="#FFFFFF" stroke="#000000" stroke-miterlimit="10" points="701.9,736.3 695.9,743.4 700,750.9 709.7,748 714.4,739.9 
	709.1,733.5 "/>
<polygon fill="#FFFFFF" stroke="#000000" stroke-miterlimit="10" points="687.8,744.8 682.5,752.6 685.2,759.1 695.1,758.4 
	700,750.9 695.9,743.4 "/>
<polygon fill="#FFFFFF" stroke="#000000" stroke-miterlimit="10" points="682.5,752.6 673.5,753 667.1,759.6 670.2,766.3 
	678.9,766.9 685.2,759.1 "/>
<polygon fill="#FFFFFF" stroke="#000000" stroke-miterlimit="10" points="657.9,759.1 651.6,765 653.3,771.8 663.4,772.9 
	670.2,766.3 667.1,759.6 "/>
<polygon fill="#FFFFFF" stroke="#000000" stroke-miterlimit="10" points="642.6,764 636.1,769 636.4,777.1 646.2,778.7 653.3,771.8 
	651.6,765 "/>
<polygon fill="#FFFFFF" stroke="#000000" stroke-miterlimit="10" points="626,767.4 618.9,772.1 619.6,778.5 628.7,782 636.4,777.1 
	636.1,769 "/>
<polygon fill="#FFFFFF" stroke="#000000" stroke-miterlimit="10" points="610.6,768.9 602.2,772.7 602.1,779.8 611.6,783.6 
	619.6,778.5 618.9,772.1 "/>
<polygon fill="#FFFFFF" stroke="#000000" stroke-miterlimit="10" points="594.4,769.1 585.4,771.7 584.9,778.1 592.9,782.8 
	602.1,779.8 602.2,772.7 "/>
<polygon fill="#FFFFFF" stroke="#000000" stroke-miterlimit="10" points="577.4,767.2 568.5,769.2 566.9,775.5 575,781.4 
	584.9,778.1 585.4,771.7 "/>
<polygon fill="#FFFFFF" stroke="#000000" stroke-miterlimit="10" points="561.5,763.5 552.4,764.1 550.1,771.5 557.3,777.7 
	566.9,775.5 568.5,769.2 "/>
<polygon fill="#FFFFFF" stroke="#000000" stroke-miterlimit="10" points="545.9,758.5 536.4,759.3 534.2,765.3 540.1,772.5 
	550.1,771.5 552.4,764.1 "/>
<polygon fill="#FFFFFF" stroke="#000000" stroke-miterlimit="10" points="530.5,751.9 521.7,751.3 517.9,756.9 524.8,765.1 
	534.2,765.3 536.4,759.3 "/>
<polygon fill="#FFFFFF" stroke="#000000" stroke-miterlimit="10" points="507.7,742.2 502.1,748.2 508.8,756.4 517.9,756.9 
	521.7,751.3 516.2,743 "/>
<polygon fill="#FFFFFF" stroke="#000000" stroke-miterlimit="10" points="502.1,733.8 493.1,731.9 488.2,737.5 493.8,746.3 
	502.1,748.2 507.7,742.2 "/>
<polygon fill="#FFFFFF" stroke="#000000" stroke-miterlimit="10" points="489.3,723.9 480.9,720.6 476,725.6 479.3,734.4 
	488.2,737.5 493.1,731.9 "/>
<polygon fill="#FFFFFF" stroke="#000000" stroke-miterlimit="10" points="477.7,712.7 469.3,708.2 463.8,712.4 467.2,721.6 
	476,725.6 480.9,720.6 "/>
<polygon fill="#FFFFFF" stroke="#000000" stroke-miterlimit="10" points="469.3,708.2 467.4,700.6 459.7,695.3 453.9,698.8 
	455.1,707.9 463.8,712.4 "/>
<polygon fill="#FFFFFF" stroke="#000000" stroke-miterlimit="10" points="459.7,695.3 457.8,686.1 450.6,680.2 445,683.7 
	445.4,693.7 453.9,698.8 "/>
<polygon fill="#FFFFFF" stroke="#000000" stroke-miterlimit="10" points="450.2,671.7 442.9,664.7 436.7,667.9 436.3,677.1 
	445,683.7 450.6,680.2 "/>
<polygon fill="#FFFFFF" stroke="#000000" stroke-miterlimit="10" points="443.5,657 437.3,649.5 429.6,651.6 428.5,661 436.7,667.9 
	442.9,664.7 "/>
<polygon fill="#FFFFFF" stroke="#000000" stroke-miterlimit="10" points="438.3,641.1 432.9,633.2 425.2,634.8 423,644.2 
	429.6,651.6 437.3,649.5 "/>
<polygon fill="#FFFFFF" stroke="#000000" stroke-miterlimit="10" points="434.6,624 429.5,616.5 422.7,616.7 418.4,625.9 
	425.2,634.8 432.9,633.2 "/>
<polygon fill="#FFFFFF" stroke="#000000" stroke-miterlimit="10" points="432.8,607.4 428.6,599 421.2,599.3 417.4,607.8 
	422.7,616.7 429.5,616.5 "/>
<polygon fill="#FFFFFF" stroke="#000000" stroke-miterlimit="10" points="432.5,591.1 428.9,582.7 422,581.7 416.9,589.5 
	421.2,599.3 428.6,599 "/>
<polygon fill="#FFFFFF" stroke="#000000" stroke-miterlimit="10" points="433.7,575.4 431.1,566.7 423.5,564.9 418.7,572.6 
	422,581.7 428.9,582.7 "/>
<polygon fill="#FFFFFF" stroke="#000000" stroke-miterlimit="10" points="436.5,559.2 435.2,550.1 428.7,547.4 421.9,555.4 
	423.5,564.9 431.1,566.7 "/>
<polygon fill="#FFFFFF" stroke="#000000" stroke-miterlimit="10" points="441.3,543.8 441.3,534.1 434.2,531.1 427.1,537.8 
	428.7,547.4 435.2,550.1 "/>
<polygon fill="#FFFFFF" stroke="#000000" stroke-miterlimit="10" points="448.3,527.5 448.2,518.2 442.2,514.5 433.9,520.5 
	434.2,531.1 441.3,534.1 "/>
<polygon fill="#FFFFFF" stroke="#000000" stroke-miterlimit="10" points="454.8,513 456.8,504.6 451.1,499.7 442.5,505.2 
	442.2,514.5 448.2,518.2 "/>
<polygon fill="#FFFFFF" stroke="#000000" stroke-miterlimit="10" points="466.8,490.3 460.8,484.7 452.5,489.6 451.1,499.7 
	456.8,504.6 465.1,499.5 "/>
<polygon fill="#FFFFFF" stroke="#000000" stroke-miterlimit="10" points="475.1,486.1 478.6,477.7 473.3,472.2 464,475.9 
	460.8,484.7 466.8,490.3 "/>
<polygon fill="#FFFFFF" stroke="#000000" stroke-miterlimit="10" points="487.4,475.1 490,466.3 486.1,459.7 477,463.1 473.3,472.2 
	478.6,477.7 "/>
<polygon fill="#FFFFFF" stroke="#000000" stroke-miterlimit="10" points="490,466.3 499.5,463.8 504,456.1 500.2,450.7 490.4,451.4 
	486.1,459.7 "/>
<polygon fill="#FFFFFF" stroke="#000000" stroke-miterlimit="10" points="504,456.1 513.5,454.9 518.9,447.9 515.3,440.6 
	504.8,441.9 500.2,450.7 "/>
<polygon fill="#FFFFFF" stroke="#000000" stroke-miterlimit="10" points="528.3,447.8 533.8,440.5 531.4,434.6 520.9,433.3 
	515.3,440.6 518.9,447.9 "/>
<polygon fill="#FFFFFF" stroke="#000000" stroke-miterlimit="10" points="543.4,441.7 550,436 547.9,428 538.2,426.9 531.4,434.6 
	533.8,440.5 "/>
<polygon fill="#FFFFFF" stroke="#000000" stroke-miterlimit="10" points="559.1,436 566.2,430.8 565.3,423.5 555.9,421.6 547.9,428 
	550,436 "/>
<polygon fill="#FFFFFF" stroke="#000000" stroke-miterlimit="10" points="576.3,432.3 583.2,429.1 582.5,422 573.8,418.2 
	565.3,423.5 566.2,430.8 "/>
<polygon fill="#FFFFFF" stroke="#000000" stroke-miterlimit="10" points="591.7,432.1 600.9,427.6 601.4,420.2 591.2,416.5 
	582.5,422 583.2,429.1 "/>
<polygon fill="#FFFFFF" stroke="#000000" stroke-miterlimit="10" points="609.2,431.4 617.6,428.7 618.7,421.3 609.7,416 
	601.4,420.2 600.9,427.6 "/>
</svg>
