<?xml version="1.0" encoding="utf-8"?>
<!-- Generator: Adobe Illustrator 18.0.0, SVG Export Plug-In . SVG Version: 6.00 Build 0)  -->
<svg version="1.2" baseProfile="tiny" id="Layer_1" xmlns="http://www.w3.org/2000/svg" xmlns:xlink="http://www.w3.org/1999/xlink"
	 x="0px" y="0px" width="1200px" height="1200px" viewBox="0 0 1200 1200" xml:space="preserve">
<polygon fill="none" stroke="#000000" stroke-miterlimit="10" points="702,507.1 708.1,501.6 705.4,494.5 698.2,491.5 692.4,496.9 
	695.2,503.5 "/>
<polygon fill="none" stroke="#000000" stroke-miterlimit="10" points="705.4,494.5 708.1,501.6 715.4,505 720.6,500.5 718.2,492.4 
	710.3,489.3 "/>
<polygon fill="none" stroke="#000000" stroke-miterlimit="10" points="718.2,492.4 723.9,487.2 720.9,479.2 712.1,475.6 
	707.4,481.4 710.3,489.3 "/>
<polygon fill="none" stroke="#000000" stroke-miterlimit="10" points="723.9,487.2 732.5,491.5 738.4,487 736.2,477.9 726.6,473.6 
	720.9,479.2 "/>
<polygon fill="none" stroke="#000000" stroke-miterlimit="10" points="726.6,473.6 736.2,477.9 741.5,472 738.5,462.5 727.7,459 
	723,465 "/>
<polygon fill="none" stroke="#000000" stroke-miterlimit="10" points="741.5,472 750.9,477.5 757.2,472.6 754,461.9 744.3,457 
	738.5,462.5 "/>
<polygon fill="none" stroke="#000000" stroke-miterlimit="10" points="744.3,457 754,461.9 760.5,455.9 754.8,446.3 745.9,441.3 
	739.1,447.7 "/>
<polygon fill="none" stroke="#000000" stroke-miterlimit="10" points="760.5,455.9 769.5,461.4 776.1,456.3 772.7,445.7 
	761.4,440.1 754.8,446.3 "/>
<polygon fill="none" stroke="#000000" stroke-miterlimit="10" points="761.4,440.1 772.7,445.7 778.8,439.4 773.6,427.6 
	761.3,422.8 755.4,428.6 "/>
<polygon fill="none" stroke="#000000" stroke-miterlimit="10" points="790.8,446.6 797,439.1 792.5,427.3 780,420.7 773.6,427.6 
	778.8,439.4 "/>
<polygon fill="none" stroke="#000000" stroke-miterlimit="10" points="792.5,427.3 798.3,421.7 792.6,407.9 780.6,403.2 774.3,410 
	780,420.7 "/>
<polygon fill="none" stroke="#000000" stroke-miterlimit="10" points="854.6,368.8 861.5,361.8 854,346.5 836.8,337.5 829.9,345.3 
	838.3,360.3 "/>
<polygon fill="none" stroke="#000000" stroke-miterlimit="10" points="854,346.5 861.5,361.8 877.8,373.5 885.8,365.5 877,347.8 
	861,339.2 "/>
<polygon fill="none" stroke="#000000" stroke-miterlimit="10" points="877,347.8 884.8,341.8 875.8,323.5 858.2,313.5 851,322.5 
	861,339.2 "/>
<polygon fill="none" stroke="#000000" stroke-miterlimit="10" points="833.6,389.3 839.6,381.9 832.3,367.4 817.3,358.7 
	810.9,367.4 817.5,381.2 "/>
<polygon fill="none" stroke="#000000" stroke-miterlimit="10" points="812.3,409.1 819.5,401.5 812.8,388.2 797.2,381.5 
	792.2,388.1 799.3,401.3 "/>
<polygon fill="none" stroke="#000000" stroke-miterlimit="10" points="810.4,427.8 818.7,422.4 812.3,409.1 799.3,401.3 
	792.6,407.9 798.3,421.7 "/>
<polygon fill="none" stroke="#000000" stroke-miterlimit="10" points="875.8,323.5 884.8,341.8 902.5,352.8 910.1,345.7 
	900.4,327.4 882.7,316.3 "/>
<polygon fill="none" stroke="#000000" stroke-miterlimit="10" points="900.4,327.4 908.2,318.5 897.6,300.8 878.2,291 871.4,299 
	882.7,316.3 "/>
<polygon fill="none" stroke="#000000" stroke-miterlimit="10" points="926.4,303.4 934.8,297.6 924.1,275.1 903.4,265.5 
	894.7,271.9 906.5,292.4 "/>
<polygon fill="none" stroke="#000000" stroke-miterlimit="10" points="897.6,300.8 908.2,318.5 927.6,331.9 936,325.3 926.4,303.4 
	906.5,292.4 "/>
<path fill="none" stroke="#000000" stroke-miterlimit="10" d="M1051.6,147.8l-11,12l16.8,27.8l16.8,11.4c2.9-9.2,5.8-18,8.6-26.2
	l-2.9-8.3L1051.6,147.8z"/>
<path fill="none" stroke="#000000" stroke-miterlimit="10" d="M1102,119.7c2.4-6,4.5-11.1,6.3-15.3c2.5-5.9,4.5-9.9,5.7-12
	c4-3.3-3.3-10-8-9.3c-0.8,0.1-9.2,3.8-23.8,9.8l6.3,18L1102,119.7z"/>
<path fill="none" stroke="#000000" stroke-miterlimit="10" d="M1051.6,147.8l28.2,16.8c0,0,10.2-12.7,11.2-15.4l-15.3-26.1l-25-17.9
	c-2.4,0.9-15.7,12-15.7,12L1051.6,147.8z"/>
<path fill="none" stroke="#000000" stroke-miterlimit="10" d="M1075.6,123.1l7.5,12.9l7.8,13.3c4.1-11.4,7.8-21.3,11.1-29.5
	l-6.3-4.2l-7.2-4.8L1075.6,123.1z"/>
<polygon fill="none" stroke="#000000" stroke-miterlimit="10" points="1044,196.7 1057.3,187.6 1040.5,159.8 1012.7,143.7 
	1003,152.7 1017.7,181.1 "/>
<polygon fill="none" stroke="#000000" stroke-miterlimit="10" points="953.8,280.7 962,272.6 950.5,250.4 928.7,237.5 920.8,245.1 
	932.2,267.2 "/>
<polygon fill="none" stroke="#000000" stroke-miterlimit="10" points="982.9,255.1 991.6,246.6 979.8,222.9 954.4,208.7 
	945.7,218.8 959.2,242 "/>
<polygon fill="none" stroke="#000000" stroke-miterlimit="10" points="924.1,275.1 934.8,297.6 955.9,309.3 963.2,301.7 
	953.8,280.7 932.2,267.2 "/>
<polygon fill="none" stroke="#000000" stroke-miterlimit="10" points="950.5,250.4 962,272.6 984.4,285.9 993.9,278.7 982.9,255.1 
	959.2,242 "/>
<polygon fill="none" stroke="#000000" stroke-miterlimit="10" points="979.8,222.9 991.6,246.6 1014.7,260.6 1026.4,252.2 
	1013.4,227.2 988.5,211.8 "/>
<polygon fill="none" stroke="#000000" stroke-miterlimit="10" points="1013.4,227.2 1022.1,218.1 1008.4,190.1 983.1,178.4 
	975.3,189.1 988.5,211.8 "/>
<polygon fill="none" stroke="#000000" stroke-miterlimit="10" points="1008.4,190.1 1022.1,218.1 1047.5,233.6 1058,223.5 
	1044,196.7 1017.7,181.1 "/>
<polygon fill="none" stroke="#00B1FF" stroke-miterlimit="10" points="831.5,408.8 839,403.8 833.6,389.3 817.5,381.2 812.8,388.2 
	819.5,401.5 "/>
<polygon fill="none" stroke="#00B1FF" stroke-miterlimit="10" points="855.1,391.4 861.8,385.2 854.6,368.8 838.3,360.3 
	832.3,367.4 839.6,381.9 "/>
</svg>
