<?xml version="1.0" encoding="utf-8"?>
<!-- Generator: Adobe Illustrator 18.0.0, SVG Export Plug-In . SVG Version: 6.00 Build 0)  -->
<svg version="1.2" baseProfile="tiny" id="Layer_1" xmlns="http://www.w3.org/2000/svg" xmlns:xlink="http://www.w3.org/1999/xlink"
	 x="0px" y="0px" width="1200px" height="1200px" viewBox="0 0 1200 1200" xml:space="preserve">
<polygon fill="#FFFFFF" stroke="#000000" stroke-miterlimit="10" points="275.8,479.2 218.6,399.3 104.7,399.3 62.2,495 133.6,580 
	233.3,580 "/>
<polygon fill="#FFFFFF" stroke="#000000" stroke-miterlimit="10" points="131.5,143.6 107.6,92.4 46.2,92.4 16.2,146.3 49.3,196.8 
	116.8,194.3 "/>
<polygon fill="#FFFFFF" stroke="#000000" stroke-miterlimit="10" points="148.5,270.3 114.3,239.3 68,258.7 62.5,308.8 103.4,336.4 
	153.6,313.2 "/>
<polygon fill="#FFFFFF" stroke="#000000" stroke-miterlimit="10" points="534,186.1 535.8,139.9 491.2,117 449.2,144.9 454.4,194 
	504.4,217.5 "/>
<polygon fill="#FFFFFF" stroke="#000000" stroke-miterlimit="10" points="502.4,453.2 443.1,431.1 394.2,479.4 412.5,546 
	478.7,560.3 530.7,505.3 "/>
<polygon fill="#FFFFFF" stroke="#000000" stroke-miterlimit="10" points="271.7,192.9 306,162 291.3,114 242,103.4 210.5,141.4 
	228.5,193.6 "/>
<polygon fill="#FFFFFF" stroke="#000000" stroke-miterlimit="10" points="548.8,267.4 514.5,236.4 468.3,255.8 462.8,305.9 
	503.7,333.5 553.8,310.3 "/>
<polygon fill="#FFFFFF" stroke="#000000" stroke-miterlimit="10" points="379.6,442.1 345.4,411.1 299.2,430.5 293.6,480.7 
	334.5,508.2 384.7,485 "/>
<polygon fill="#FFFFFF" stroke="#000000" stroke-miterlimit="10" points="415,127 380.8,96 334.5,115.5 329,165.6 370,193.2 
	420.1,169.9 "/>
<polygon fill="#FFFFFF" stroke="#000000" stroke-miterlimit="10" points="752.1,986.8 694.9,906.9 581,906.9 538.5,1002.6 
	609.9,1087.6 709.6,1087.6 "/>
<polygon fill="#FFFFFF" stroke="#000000" stroke-miterlimit="10" points="607.8,651.2 583.9,600 522.5,600 492.5,653.9 525.6,704.4 
	593.1,701.9 "/>
<polygon fill="#FFFFFF" stroke="#000000" stroke-miterlimit="10" points="624.8,777.9 590.6,746.9 544.3,766.3 538.8,816.4 
	579.7,844 629.9,820.8 "/>
<polygon fill="#FFFFFF" stroke="#000000" stroke-miterlimit="10" points="1010.3,693.7 1012.1,647.5 967.5,624.6 925.5,652.5 
	930.7,701.6 980.7,725.1 "/>
<polygon fill="#FFFFFF" stroke="#000000" stroke-miterlimit="10" points="978.7,960.8 919.4,938.7 870.5,987 888.8,1053.6 
	955,1067.9 1007,1012.9 "/>
<polygon fill="#FFFFFF" stroke="#000000" stroke-miterlimit="10" points="748,700.5 782.3,669.6 767.6,621.6 718.3,611 686.8,649 
	704.8,701.2 "/>
<polygon fill="#FFFFFF" stroke="#000000" stroke-miterlimit="10" points="1025.1,775 990.8,744 944.6,763.4 939.1,813.5 980,841.1 
	1030.1,817.9 "/>
<polygon fill="#FFFFFF" stroke="#000000" stroke-miterlimit="10" points="855.9,949.7 821.7,918.7 775.5,938.1 769.9,988.3 
	810.8,1015.8 861,992.6 "/>
<polygon fill="#FFFFFF" stroke="#000000" stroke-miterlimit="10" points="891.3,634.6 857.1,603.6 810.8,623.1 805.3,673.2 
	846.3,700.8 896.4,677.5 "/>
</svg>
