<?xml version="1.0" encoding="utf-8"?>
<!-- Generator: Adobe Illustrator 18.0.0, SVG Export Plug-In . SVG Version: 6.00 Build 0)  -->
<svg version="1.2" baseProfile="tiny" id="Layer_1" xmlns="http://www.w3.org/2000/svg" xmlns:xlink="http://www.w3.org/1999/xlink"
	 x="0px" y="0px" width="1200px" height="1200px" viewBox="0 0 1200 1200" xml:space="preserve">
<polygon fill="#FFFFFF" stroke="#000000" stroke-miterlimit="10" points="892.6,523 809.2,344.4 595,344.4 490.2,532.5 605.7,708.7 
	841.4,700.3 "/>
<polygon fill="#FFFFFF" stroke="#000000" stroke-miterlimit="10" points="561.6,905.1 441.4,737.2 202.1,737.2 112.8,938.4 
	262.8,1117 472.3,1117 "/>
<polygon fill="#FFFFFF" stroke="#000000" stroke-miterlimit="10" points="258.4,199.9 208.2,92.4 79.3,92.4 16.2,205.6 85.7,311.7 
	227.6,306.6 "/>
<polygon fill="#FFFFFF" stroke="#000000" stroke-miterlimit="10" points="294.2,466.1 222.3,401 125.1,441.8 113.5,547.2 199.5,605 
	304.8,556.3 "/>
<polygon fill="#FFFFFF" stroke="#000000" stroke-miterlimit="10" points="1104.2,289.2 1108,192.3 1014.2,144 926,202.7 
	936.9,305.8 1041.9,355.2 "/>
<polygon fill="#FFFFFF" stroke="#000000" stroke-miterlimit="10" points="1037.9,850.5 913.3,804.1 810.4,905.5 849,1045.5 
	987.9,1075.5 1097.2,959.9 "/>
<polygon fill="#FFFFFF" stroke="#000000" stroke-miterlimit="10" points="553.1,303.6 625.1,238.6 594.2,137.8 490.6,115.6 
	424.4,195.4 462.3,305.1 "/>
<polygon fill="#FFFFFF" stroke="#000000" stroke-miterlimit="10" points="1135.2,460.1 1063.3,395 966.1,435.8 954.5,541.1 
	1040.5,599 1145.8,550.2 "/>
<polygon fill="#FFFFFF" stroke="#000000" stroke-miterlimit="10" points="779.8,827.1 707.9,762 610.8,802.8 599.1,908.2 685.1,966 
	790.4,917.3 "/>
<polygon fill="#FFFFFF" stroke="#000000" stroke-miterlimit="10" points="854.2,165.1 782.3,100 685.1,140.9 673.5,246.2 
	759.5,304.1 864.8,255.3 "/>
</svg>
