<?xml version="1.0" encoding="utf-8"?>
<!-- Generator: Adobe Illustrator 18.0.0, SVG Export Plug-In . SVG Version: 6.00 Build 0)  -->
<svg version="1.2" baseProfile="tiny" id="Layer_1" xmlns="http://www.w3.org/2000/svg" xmlns:xlink="http://www.w3.org/1999/xlink"
	 x="0px" y="0px" width="1200px" height="1200px" viewBox="0 0 1200 1200" xml:space="preserve">
<polygon fill="#FFFFFF" stroke="#000000" stroke-miterlimit="10" points="241.3,1023.7 184.1,943.7 70.2,943.7 27.7,1039.5 
	99.1,1124.5 198.8,1124.5 "/>
<polygon fill="#FFFFFF" stroke="#000000" stroke-miterlimit="10" points="97,688 73.1,636.9 11.7,636.9 -18.3,690.7 14.8,741.2 
	82.3,738.8 "/>
<polygon fill="#FFFFFF" stroke="#000000" stroke-miterlimit="10" points="114,814.7 79.8,783.7 33.5,803.2 28,853.3 68.9,880.8 
	119.1,857.7 "/>
<polygon fill="#FFFFFF" stroke="#000000" stroke-miterlimit="10" points="499.5,730.5 501.3,684.4 456.7,661.4 414.7,689.4 
	419.9,738.4 469.9,761.9 "/>
<polygon fill="#FFFFFF" stroke="#000000" stroke-miterlimit="10" points="467.9,997.7 408.6,975.6 359.7,1023.8 378,1090.5 
	444.2,1104.7 496.2,1049.7 "/>
<polygon fill="#FFFFFF" stroke="#000000" stroke-miterlimit="10" points="237.2,737.4 271.5,706.5 256.8,658.5 207.5,647.9 
	176,685.9 194,738.1 "/>
<polygon fill="#FFFFFF" stroke="#000000" stroke-miterlimit="10" points="514.3,811.9 480,780.9 433.8,800.3 428.3,850.4 469.2,878 
	519.3,854.7 "/>
<polygon fill="#FFFFFF" stroke="#000000" stroke-miterlimit="10" points="345.1,986.5 310.9,955.5 264.7,975 259.1,1025.1 
	300,1052.6 350.2,1029.5 "/>
<polygon fill="#FFFFFF" stroke="#000000" stroke-miterlimit="10" points="380.5,671.5 346.3,640.5 300,660 294.5,710.1 335.5,737.6 
	385.6,714.4 "/>
<polygon fill="#FFFFFF" stroke="#000000" stroke-miterlimit="10" points="752.1,986.8 694.9,906.9 581,906.9 538.5,1002.6 
	609.9,1087.6 709.6,1087.6 "/>
<polygon fill="#FFFFFF" stroke="#000000" stroke-miterlimit="10" points="607.8,651.2 583.9,600 522.5,600 492.5,653.9 525.6,704.4 
	593.1,701.9 "/>
<polygon fill="#FFFFFF" stroke="#000000" stroke-miterlimit="10" points="624.8,777.9 590.6,746.9 544.3,766.3 538.8,816.4 
	579.7,844 629.9,820.8 "/>
<polygon fill="#FFFFFF" stroke="#000000" stroke-miterlimit="10" points="1010.3,693.7 1012.1,647.5 967.5,624.6 925.5,652.5 
	930.7,701.6 980.7,725.1 "/>
<polygon fill="#FFFFFF" stroke="#000000" stroke-miterlimit="10" points="978.7,960.8 919.4,938.7 870.5,987 888.8,1053.6 
	955,1067.9 1007,1012.9 "/>
<polygon fill="#FFFFFF" stroke="#000000" stroke-miterlimit="10" points="748,700.5 782.3,669.6 767.6,621.6 718.3,611 686.8,649 
	704.8,701.2 "/>
<polygon fill="#FFFFFF" stroke="#000000" stroke-miterlimit="10" points="1025.1,775 990.8,744 944.6,763.4 939.1,813.5 980,841.1 
	1030.1,817.9 "/>
<polygon fill="#FFFFFF" stroke="#000000" stroke-miterlimit="10" points="855.9,949.7 821.7,918.7 775.5,938.1 769.9,988.3 
	810.8,1015.8 861,992.6 "/>
<polygon fill="#FFFFFF" stroke="#000000" stroke-miterlimit="10" points="891.3,634.6 857.1,603.6 810.8,623.1 805.3,673.2 
	846.3,700.8 896.4,677.5 "/>
<polygon fill="#FFFFFF" stroke="#000000" stroke-miterlimit="10" points="241.9,854.2 218,803 156.6,803 126.6,856.9 159.7,907.4 
	227.2,904.9 "/>
<polygon fill="#FFFFFF" stroke="#000000" stroke-miterlimit="10" points="874.4,809.5 908.7,778.6 894,730.6 844.7,720 813.2,758 
	831.2,810.2 "/>
<polygon fill="#FFFFFF" stroke="#000000" stroke-miterlimit="10" points="407.8,831.3 383.9,780.1 322.6,780.1 292.5,834 
	325.6,884.5 393.1,882 "/>
<polygon fill="#FFFFFF" stroke="#000000" stroke-miterlimit="10" points="717.8,821.1 752.1,790.2 737.4,742.2 688.1,731.6 
	656.5,769.6 674.6,821.8 "/>
<polygon fill="#FFFFFF" stroke="#000000" stroke-miterlimit="10" points="658.8,614.4 693,583.4 678.3,535.5 629,524.9 597.5,562.9 
	615.5,615.1 "/>
<polygon fill="#FFFFFF" stroke="#000000" stroke-miterlimit="10" points="841.6,443.8 784.4,363.9 670.5,363.9 628,459.6 
	699.4,544.6 799.1,544.6 "/>
<polygon fill="#FFFFFF" stroke="#000000" stroke-miterlimit="10" points="697.3,108.2 673.4,57 612.1,57 582,110.9 615.1,161.4 
	682.7,159 "/>
<polygon fill="#FFFFFF" stroke="#000000" stroke-miterlimit="10" points="714.3,234.9 680.1,203.9 633.9,223.3 628.4,273.5 
	669.3,301 719.4,277.8 "/>
<polygon fill="#FFFFFF" stroke="#000000" stroke-miterlimit="10" points="1099.8,150.7 1101.7,104.6 1057,81.6 1015,109.5 
	1020.2,158.6 1070.2,182.1 "/>
<polygon fill="#FFFFFF" stroke="#000000" stroke-miterlimit="10" points="1068.3,417.8 1009,395.7 960,444 978.4,510.6 
	1044.5,524.9 1096.5,469.9 "/>
<polygon fill="#FFFFFF" stroke="#000000" stroke-miterlimit="10" points="837.6,157.5 871.8,126.6 857.1,78.6 807.8,68.1 776.3,106 
	794.4,158.2 "/>
<polygon fill="#FFFFFF" stroke="#000000" stroke-miterlimit="10" points="1114.6,232 1080.4,201 1034.1,220.4 1028.6,270.6 
	1069.5,298.1 1119.6,274.9 "/>
<polygon fill="#FFFFFF" stroke="#000000" stroke-miterlimit="10" points="945.5,406.7 911.2,375.7 865,395.1 859.5,445.3 
	900.4,472.8 950.5,449.6 "/>
<polygon fill="#FFFFFF" stroke="#000000" stroke-miterlimit="10" points="980.9,91.6 946.6,60.6 900.4,80.1 894.9,130.2 
	935.8,157.8 985.9,134.5 "/>
<polygon fill="#FFFFFF" stroke="#000000" stroke-miterlimit="10" points="964,266.5 998.3,235.6 983.6,187.6 934.2,177.1 902.7,215 
	920.8,267.2 "/>
<polygon fill="#FFFFFF" stroke="#000000" stroke-miterlimit="10" points="807.3,278.1 841.6,247.2 826.9,199.2 777.6,188.6 
	746.1,226.6 764.1,278.8 "/>
<polygon fill="#FFFFFF" stroke="#000000" stroke-miterlimit="10" points="272.1,454.7 214.9,374.8 101,374.8 58.5,470.5 
	129.9,555.5 229.6,555.5 "/>
<polygon fill="#FFFFFF" stroke="#000000" stroke-miterlimit="10" points="127.8,119.1 103.9,67.9 42.6,67.9 12.5,121.8 45.6,172.3 
	113.1,169.8 "/>
<polygon fill="#FFFFFF" stroke="#000000" stroke-miterlimit="10" points="144.8,245.7 110.6,214.8 64.4,234.2 58.8,284.3 
	99.8,311.8 149.9,288.7 "/>
<polygon fill="#FFFFFF" stroke="#000000" stroke-miterlimit="10" points="530.3,161.6 532.1,115.4 487.5,92.4 445.5,120.4 
	450.7,169.5 500.7,193 "/>
<polygon fill="#FFFFFF" stroke="#000000" stroke-miterlimit="10" points="498.8,428.7 439.5,406.6 390.5,454.9 408.9,521.5 
	475,535.8 527,480.7 "/>
<polygon fill="#FFFFFF" stroke="#000000" stroke-miterlimit="10" points="268.1,168.4 302.3,137.5 287.6,89.5 238.3,78.9 
	206.8,116.9 224.8,169.1 "/>
<polygon fill="#FFFFFF" stroke="#000000" stroke-miterlimit="10" points="545.1,242.9 510.9,211.9 464.6,231.3 459.1,281.4 500,309 
	550.1,285.8 "/>
<polygon fill="#FFFFFF" stroke="#000000" stroke-miterlimit="10" points="375.9,417.5 341.7,386.6 295.5,406 289.9,456.1 
	330.9,483.7 381,460.5 "/>
<polygon fill="#FFFFFF" stroke="#000000" stroke-miterlimit="10" points="411.4,102.5 377.1,71.5 330.9,91 325.4,141.1 366.3,168.6 
	416.4,145.4 "/>
<polygon fill="#FFFFFF" stroke="#000000" stroke-miterlimit="10" points="272.7,285.2 248.8,234 187.5,234 157.4,287.9 190.5,338.4 
	258,335.9 "/>
<polygon fill="#FFFFFF" stroke="#000000" stroke-miterlimit="10" points="438.6,262.3 414.7,211.1 353.4,211.1 323.4,265 
	356.4,315.5 424,313.1 "/>
</svg>
