<?xml version="1.0" encoding="utf-8"?>
<!-- Generator: Adobe Illustrator 18.0.0, SVG Export Plug-In . SVG Version: 6.00 Build 0)  -->
<!DOCTYPE svg PUBLIC "-//W3C//DTD SVG 1.1//EN" "http://www.w3.org/Graphics/SVG/1.1/DTD/svg11.dtd">
<svg version="1.1" id="Layer_1" xmlns="http://www.w3.org/2000/svg" xmlns:xlink="http://www.w3.org/1999/xlink" x="0px" y="0px"
	 width="1200px" height="1200px" viewBox="0 0 1200 1200" enable-background="new 0 0 1200 1200" xml:space="preserve">
<polygon fill="#FFFFFF" stroke="#000000" stroke-miterlimit="10" points="62.9,50 55.2,32.7 35.2,32.7 25.4,50.9 36.2,68 58.2,67.2 
	"/>
<polygon fill="#FFFFFF" stroke="#000000" stroke-miterlimit="10" points="108.2,50 100.3,32.7 80.3,32.7 70.7,50.9 81.4,68 
	103.3,67.2 "/>
<polygon fill="#FFFFFF" stroke="#000000" stroke-miterlimit="10" points="153,50 145.2,32.7 125.3,32.7 115.5,50.9 126.3,68 
	148.2,67.2 "/>
<polygon fill="#FFFFFF" stroke="#000000" stroke-miterlimit="10" points="197.9,50 190.2,32.7 170.2,32.7 160.4,50.9 171.2,68 
	193.2,67.2 "/>
<polygon fill="#FFFFFF" stroke="#000000" stroke-miterlimit="10" points="243.1,50 235.4,32.7 215.4,32.7 205.6,50.9 216.4,68 
	238.4,67.2 "/>
<polygon fill="#FFFFFF" stroke="#000000" stroke-miterlimit="10" points="288,50 280.2,32.7 260.3,32.7 250.5,50.9 261.3,68 
	283.2,67.2 "/>
<polygon fill="#FFFFFF" stroke="#000000" stroke-miterlimit="10" points="337.9,50 330.2,32.7 310.2,32.7 300.4,50.9 311.2,68 
	333.2,67.2 "/>
<polygon fill="#FFFFFF" stroke="#000000" stroke-miterlimit="10" points="383.1,50 375.4,32.7 355.4,32.7 345.6,50.9 356.5,68 
	378.4,67.2 "/>
<polygon fill="#FFFFFF" stroke="#000000" stroke-miterlimit="10" points="428,50 420.2,32.7 400.3,32.7 390.5,50.9 401.3,68 
	423.2,67.2 "/>
<polygon fill="#FFFFFF" stroke="#000000" stroke-miterlimit="10" points="472.9,50 465.2,32.7 445.2,32.7 435.4,50.9 446.2,68 
	468.2,67.2 "/>
<polygon fill="#FFFFFF" stroke="#000000" stroke-miterlimit="10" points="518.2,50 510.4,32.7 490.4,32.7 480.6,50.9 491.5,68 
	513.3,67.2 "/>
<polygon fill="#FFFFFF" stroke="#000000" stroke-miterlimit="10" points="563,50 555.2,32.7 535.3,32.7 525.5,50.9 536.3,68 
	558.2,67.2 "/>
<polygon fill="#FFFFFF" stroke="#000000" stroke-miterlimit="10" points="619.2,50 611.5,32.7 591.5,32.7 581.7,50.9 592.5,68 
	614.5,67.2 "/>
<polygon fill="#FFFFFF" stroke="#000000" stroke-miterlimit="10" points="664.5,50 656.7,32.7 636.7,32.7 627,50.9 637.8,68 
	659.7,67.2 "/>
<polygon fill="#FFFFFF" stroke="#000000" stroke-miterlimit="10" points="709.3,50 701.5,32.7 681.6,32.7 671.8,50.9 682.6,68 
	704.5,67.2 "/>
<polygon fill="#FFFFFF" stroke="#000000" stroke-miterlimit="10" points="754.2,50 746.5,32.7 726.5,32.7 716.7,50.9 727.5,68 
	749.5,67.2 "/>
<polygon fill="#FFFFFF" stroke="#000000" stroke-miterlimit="10" points="799.5,50 791.7,32.7 771.7,32.7 762,50.9 772.8,68 
	794.7,67.2 "/>
<polygon fill="#FFFFFF" stroke="#000000" stroke-miterlimit="10" points="844.3,50 836.5,32.7 816.6,32.7 806.8,50.9 817.6,68 
	839.5,67.2 "/>
<polygon fill="#FFFFFF" stroke="#000000" stroke-miterlimit="10" points="894.2,50 886.5,32.7 866.5,32.7 856.7,50.9 867.5,68 
	889.5,67.2 "/>
<polygon fill="#FFFFFF" stroke="#000000" stroke-miterlimit="10" points="939.5,50 931.7,32.7 911.7,32.7 902,50.9 912.8,68 
	934.7,67.2 "/>
<polygon fill="#FFFFFF" stroke="#000000" stroke-miterlimit="10" points="984.3,50 976.5,32.7 956.6,32.7 946.8,50.9 957.6,68 
	979.5,67.2 "/>
<polygon fill="#FFFFFF" stroke="#000000" stroke-miterlimit="10" points="1029.2,50 1021.5,32.7 1001.5,32.7 991.7,50.9 1002.5,68 
	1024.5,67.2 "/>
<polygon fill="#FFFFFF" stroke="#000000" stroke-miterlimit="10" points="1074.4,50 1066.7,32.7 1046.7,32.7 1036.9,50.9 1047.8,68 
	1069.7,67.2 "/>
<polygon fill="#FFFFFF" stroke="#000000" stroke-miterlimit="10" points="1119.3,50 1111.5,32.7 1091.6,32.7 1081.8,50.9 1092.6,68 
	1114.5,67.2 "/>
<polygon fill="#FFFFFF" stroke="#000000" stroke-miterlimit="10" points="63.1,98 55.4,80.7 35.4,80.7 25.6,98.9 36.4,116 
	58.4,115.2 "/>
<polygon fill="#FFFFFF" stroke="#000000" stroke-miterlimit="10" points="108.3,98 100.5,80.7 80.5,80.7 70.8,98.9 81.6,116 
	103.5,115.2 "/>
<polygon fill="#FFFFFF" stroke="#000000" stroke-miterlimit="10" points="153.1,98 145.3,80.7 125.4,80.7 115.6,98.9 126.4,116 
	148.3,115.2 "/>
<polygon fill="#FFFFFF" stroke="#000000" stroke-miterlimit="10" points="198.1,98 190.4,80.7 170.4,80.7 160.6,98.9 171.4,116 
	193.4,115.2 "/>
<polygon fill="#FFFFFF" stroke="#000000" stroke-miterlimit="10" points="243.3,98 235.5,80.7 215.5,80.7 205.8,98.9 216.6,116 
	238.5,115.2 "/>
<polygon fill="#FFFFFF" stroke="#000000" stroke-miterlimit="10" points="288.1,98 280.3,80.7 260.4,80.7 250.6,98.9 261.4,116 
	283.3,115.2 "/>
<polygon fill="#FFFFFF" stroke="#000000" stroke-miterlimit="10" points="338.1,98 330.4,80.7 310.4,80.7 300.6,98.9 311.4,116 
	333.4,115.2 "/>
<polygon fill="#FFFFFF" stroke="#000000" stroke-miterlimit="10" points="383.3,98 375.5,80.7 355.5,80.7 345.8,98.9 356.6,116 
	378.5,115.2 "/>
<polygon fill="#FFFFFF" stroke="#000000" stroke-miterlimit="10" points="428.1,98 420.3,80.7 400.4,80.7 390.6,98.9 401.4,116 
	423.3,115.2 "/>
<polygon fill="#FFFFFF" stroke="#000000" stroke-miterlimit="10" points="473.1,98 465.4,80.7 445.4,80.7 435.6,98.9 446.4,116 
	468.4,115.2 "/>
<polygon fill="#FFFFFF" stroke="#000000" stroke-miterlimit="10" points="518.3,98 510.5,80.7 490.5,80.7 480.8,98.9 491.6,116 
	513.5,115.2 "/>
<polygon fill="#FFFFFF" stroke="#000000" stroke-miterlimit="10" points="563.1,98 555.3,80.7 535.5,80.7 525.6,98.9 536.5,116 
	558.3,115.2 "/>
<polygon fill="#FFFFFF" stroke="#000000" stroke-miterlimit="10" points="619.4,98 611.7,80.7 591.7,80.7 581.9,98.9 592.7,116 
	614.7,115.2 "/>
<polygon fill="#FFFFFF" stroke="#000000" stroke-miterlimit="10" points="664.6,98 656.8,80.7 636.8,80.7 627.1,98.9 637.9,116 
	659.8,115.2 "/>
<polygon fill="#FFFFFF" stroke="#000000" stroke-miterlimit="10" points="709.5,98 701.6,80.7 681.8,80.7 672,98.9 682.8,116 
	704.6,115.2 "/>
<polygon fill="#FFFFFF" stroke="#000000" stroke-miterlimit="10" points="754.4,98 746.7,80.7 726.7,80.7 716.9,98.9 727.7,116 
	749.7,115.2 "/>
<polygon fill="#FFFFFF" stroke="#000000" stroke-miterlimit="10" points="799.6,98 791.8,80.7 771.8,80.7 762.1,98.9 772.9,116 
	794.8,115.2 "/>
<polygon fill="#FFFFFF" stroke="#000000" stroke-miterlimit="10" points="844.5,98 836.6,80.7 816.8,80.7 807,98.9 817.8,116 
	839.6,115.2 "/>
<polygon fill="#FFFFFF" stroke="#000000" stroke-miterlimit="10" points="894.4,98 886.7,80.7 866.7,80.7 856.9,98.9 867.7,116 
	889.7,115.2 "/>
<polygon fill="#FFFFFF" stroke="#000000" stroke-miterlimit="10" points="939.6,98 931.8,80.7 911.8,80.7 902.1,98.9 912.9,116 
	934.8,115.2 "/>
<polygon fill="#FFFFFF" stroke="#000000" stroke-miterlimit="10" points="984.5,98 976.6,80.7 956.8,80.7 947,98.9 957.8,116 
	979.6,115.2 "/>
<polygon fill="#FFFFFF" stroke="#000000" stroke-miterlimit="10" points="1029.3,98 1021.7,80.7 1001.7,80.7 991.9,98.9 1002.7,116 
	1024.7,115.2 "/>
<polygon fill="#FFFFFF" stroke="#000000" stroke-miterlimit="10" points="1074.6,98 1066.8,80.7 1046.8,80.7 1037.1,98.9 
	1047.9,116 1069.8,115.2 "/>
<polygon fill="#FFFFFF" stroke="#000000" stroke-miterlimit="10" points="1119.4,98 1111.7,80.7 1091.8,80.7 1081.9,98.9 
	1092.8,116 1114.7,115.2 "/>
<polygon fill="#FFFFFF" stroke="#000000" stroke-miterlimit="10" points="63,146 55.3,128.7 35.3,128.7 25.5,146.9 36.3,164 
	58.3,163.2 "/>
<polygon fill="#FFFFFF" stroke="#000000" stroke-miterlimit="10" points="108.2,146 100.4,128.7 80.4,128.7 70.7,146.9 81.5,164 
	103.4,163.2 "/>
<polygon fill="#FFFFFF" stroke="#000000" stroke-miterlimit="10" points="153.1,146 145.3,128.7 125.4,128.7 115.6,146.9 126.4,164 
	148.3,163.2 "/>
<polygon fill="#FFFFFF" stroke="#000000" stroke-miterlimit="10" points="198,146 190.3,128.7 170.3,128.7 160.5,146.9 171.3,164 
	193.3,163.2 "/>
<polygon fill="#FFFFFF" stroke="#000000" stroke-miterlimit="10" points="243.2,146 235.4,128.7 215.4,128.7 205.7,146.9 216.5,164 
	238.4,163.2 "/>
<polygon fill="#FFFFFF" stroke="#000000" stroke-miterlimit="10" points="288.1,146 280.3,128.7 260.4,128.7 250.6,146.9 261.4,164 
	283.3,163.2 "/>
<polygon fill="#FFFFFF" stroke="#000000" stroke-miterlimit="10" points="338,146 330.3,128.7 310.3,128.7 300.5,146.9 311.3,164 
	333.3,163.2 "/>
<polygon fill="#FFFFFF" stroke="#000000" stroke-miterlimit="10" points="383.2,146 375.4,128.7 355.4,128.7 345.7,146.9 356.5,164 
	378.4,163.2 "/>
<polygon fill="#FFFFFF" stroke="#000000" stroke-miterlimit="10" points="428.1,146 420.3,128.7 400.4,128.7 390.6,146.9 401.4,164 
	423.3,163.2 "/>
<polygon fill="#FFFFFF" stroke="#000000" stroke-miterlimit="10" points="473,146 465.3,128.7 445.3,128.7 435.5,146.9 446.3,164 
	468.3,163.2 "/>
<polygon fill="#FFFFFF" stroke="#000000" stroke-miterlimit="10" points="518.2,146 510.4,128.7 490.4,128.7 480.7,146.9 491.5,164 
	513.4,163.2 "/>
<polygon fill="#FFFFFF" stroke="#000000" stroke-miterlimit="10" points="563.1,146 555.3,128.7 535.4,128.7 525.6,146.9 536.4,164 
	558.3,163.2 "/>
<polygon fill="#FFFFFF" stroke="#000000" stroke-miterlimit="10" points="619.3,146 611.6,128.7 591.6,128.7 581.8,146.9 592.6,164 
	614.6,163.2 "/>
<polygon fill="#FFFFFF" stroke="#000000" stroke-miterlimit="10" points="664.5,146 656.7,128.7 636.7,128.7 627,146.9 637.8,164 
	659.7,163.2 "/>
<polygon fill="#FFFFFF" stroke="#000000" stroke-miterlimit="10" points="709.4,146 701.6,128.7 681.7,128.7 671.9,146.9 682.7,164 
	704.6,163.2 "/>
<polygon fill="#FFFFFF" stroke="#000000" stroke-miterlimit="10" points="754.3,146 746.6,128.7 726.6,128.7 716.8,146.9 727.6,164 
	749.6,163.2 "/>
<polygon fill="#FFFFFF" stroke="#000000" stroke-miterlimit="10" points="799.5,146 791.7,128.7 771.7,128.7 762,146.9 772.8,164 
	794.7,163.2 "/>
<polygon fill="#FFFFFF" stroke="#000000" stroke-miterlimit="10" points="844.4,146 836.6,128.7 816.7,128.7 806.9,146.9 817.7,164 
	839.6,163.2 "/>
<polygon fill="#FFFFFF" stroke="#000000" stroke-miterlimit="10" points="894.3,146 886.6,128.7 866.6,128.7 856.8,146.9 867.6,164 
	889.6,163.2 "/>
<polygon fill="#FFFFFF" stroke="#000000" stroke-miterlimit="10" points="939.5,146 931.7,128.7 911.7,128.7 902,146.9 912.8,164 
	934.7,163.2 "/>
<polygon fill="#FFFFFF" stroke="#000000" stroke-miterlimit="10" points="984.4,146 976.6,128.7 956.7,128.7 946.9,146.9 957.7,164 
	979.6,163.2 "/>
<polygon fill="#FFFFFF" stroke="#000000" stroke-miterlimit="10" points="1029.3,146 1021.6,128.7 1001.6,128.7 991.8,146.9 
	1002.6,164 1024.6,163.2 "/>
<polygon fill="#FFFFFF" stroke="#000000" stroke-miterlimit="10" points="1074.5,146 1066.7,128.7 1046.7,128.7 1037,146.9 
	1047.8,164 1069.7,163.2 "/>
<polygon fill="#FFFFFF" stroke="#000000" stroke-miterlimit="10" points="1119.4,146 1111.6,128.7 1091.7,128.7 1081.9,146.9 
	1092.7,164 1114.6,163.2 "/>
<polygon fill="#FFFFFF" stroke="#000000" stroke-miterlimit="10" points="63.1,194 55.4,176.7 35.4,176.7 25.6,194.9 36.4,212 
	58.4,211.2 "/>
<polygon fill="#FFFFFF" stroke="#000000" stroke-miterlimit="10" points="108.4,194 100.6,176.7 80.6,176.7 70.9,194.9 81.7,212 
	103.6,211.2 "/>
<polygon fill="#FFFFFF" stroke="#000000" stroke-miterlimit="10" points="153.2,194 145.4,176.7 125.5,176.7 115.7,194.9 126.5,212 
	148.4,211.2 "/>
<polygon fill="#FFFFFF" stroke="#000000" stroke-miterlimit="10" points="198.1,194 190.4,176.7 170.4,176.7 160.6,194.9 171.4,212 
	193.4,211.2 "/>
<polygon fill="#FFFFFF" stroke="#000000" stroke-miterlimit="10" points="243.4,194 235.6,176.7 215.6,176.7 205.9,194.9 216.7,212 
	238.6,211.2 "/>
<polygon fill="#FFFFFF" stroke="#000000" stroke-miterlimit="10" points="288.2,194 280.4,176.7 260.5,176.7 250.7,194.9 261.5,212 
	283.4,211.2 "/>
<polygon fill="#FFFFFF" stroke="#000000" stroke-miterlimit="10" points="338.1,194 330.4,176.7 310.4,176.7 300.6,194.9 311.4,212 
	333.4,211.2 "/>
<polygon fill="#FFFFFF" stroke="#000000" stroke-miterlimit="10" points="383.4,194 375.6,176.7 355.6,176.7 345.9,194.9 356.7,212 
	378.6,211.2 "/>
<polygon fill="#FFFFFF" stroke="#000000" stroke-miterlimit="10" points="428.2,194 420.4,176.7 400.5,176.7 390.7,194.9 401.5,212 
	423.4,211.2 "/>
<polygon fill="#FFFFFF" stroke="#000000" stroke-miterlimit="10" points="473.1,194 465.4,176.7 445.4,176.7 435.6,194.9 446.4,212 
	468.4,211.2 "/>
<polygon fill="#FFFFFF" stroke="#000000" stroke-miterlimit="10" points="518.4,194 510.6,176.7 490.6,176.7 480.9,194.9 491.7,212 
	513.6,211.2 "/>
<polygon fill="#FFFFFF" stroke="#000000" stroke-miterlimit="10" points="563.2,194 555.4,176.7 535.5,176.7 525.7,194.9 536.5,212 
	558.4,211.2 "/>
<polygon fill="#FFFFFF" stroke="#000000" stroke-miterlimit="10" points="619.4,194 611.7,176.7 591.7,176.7 581.9,194.9 592.7,212 
	614.7,211.2 "/>
<polygon fill="#FFFFFF" stroke="#000000" stroke-miterlimit="10" points="664.7,194 656.9,176.7 636.9,176.7 627.2,194.9 638,212 
	659.9,211.2 "/>
<polygon fill="#FFFFFF" stroke="#000000" stroke-miterlimit="10" points="709.5,194 701.7,176.7 681.8,176.7 672,194.9 682.8,212 
	704.7,211.2 "/>
<polygon fill="#FFFFFF" stroke="#000000" stroke-miterlimit="10" points="754.4,194 746.7,176.7 726.7,176.7 716.9,194.9 727.7,212 
	749.7,211.2 "/>
<polygon fill="#FFFFFF" stroke="#000000" stroke-miterlimit="10" points="799.7,194 791.9,176.7 771.9,176.7 762.2,194.9 773,212 
	794.9,211.2 "/>
<polygon fill="#FFFFFF" stroke="#000000" stroke-miterlimit="10" points="844.5,194 836.7,176.7 816.8,176.7 807,194.9 817.8,212 
	839.7,211.2 "/>
<polygon fill="#FFFFFF" stroke="#000000" stroke-miterlimit="10" points="894.4,194 886.7,176.7 866.7,176.7 856.9,194.9 867.7,212 
	889.7,211.2 "/>
<polygon fill="#FFFFFF" stroke="#000000" stroke-miterlimit="10" points="939.7,194 931.9,176.7 911.9,176.7 902.2,194.9 913,212 
	934.9,211.2 "/>
<polygon fill="#FFFFFF" stroke="#000000" stroke-miterlimit="10" points="984.5,194 976.7,176.7 956.8,176.7 947,194.9 957.8,212 
	979.7,211.2 "/>
<polygon fill="#FFFFFF" stroke="#000000" stroke-miterlimit="10" points="1029.4,194 1021.7,176.7 1001.7,176.7 991.9,194.9 
	1002.7,212 1024.7,211.2 "/>
<polygon fill="#FFFFFF" stroke="#000000" stroke-miterlimit="10" points="1074.7,194 1066.9,176.7 1046.9,176.7 1037.2,194.9 
	1048,212 1069.9,211.2 "/>
<polygon fill="#FFFFFF" stroke="#000000" stroke-miterlimit="10" points="1119.5,194 1111.7,176.7 1091.8,176.7 1082,194.9 
	1092.8,212 1114.7,211.2 "/>
<polygon fill="#FFFFFF" stroke="#000000" stroke-miterlimit="10" points="62.9,243.4 55.2,226.1 35.2,226.1 25.4,244.2 36.2,261.4 
	58.2,260.5 "/>
<polygon fill="#FFFFFF" stroke="#000000" stroke-miterlimit="10" points="108.2,243.4 100.4,226.1 80.4,226.1 70.7,244.2 
	81.5,261.4 103.4,260.5 "/>
<polygon fill="#FFFFFF" stroke="#000000" stroke-miterlimit="10" points="153,243.4 145.2,226.1 125.3,226.1 115.5,244.2 
	126.3,261.4 148.2,260.5 "/>
<polygon fill="#FFFFFF" stroke="#000000" stroke-miterlimit="10" points="197.9,243.4 190.2,226.1 170.2,226.1 160.4,244.2 
	171.2,261.4 193.2,260.5 "/>
<polygon fill="#FFFFFF" stroke="#000000" stroke-miterlimit="10" points="243.2,243.4 235.4,226.1 215.4,226.1 205.7,244.2 
	216.5,261.4 238.4,260.5 "/>
<polygon fill="#FFFFFF" stroke="#000000" stroke-miterlimit="10" points="288,243.4 280.2,226.1 260.3,226.1 250.5,244.2 
	261.3,261.4 283.2,260.5 "/>
<polygon fill="#FFFFFF" stroke="#000000" stroke-miterlimit="10" points="337.9,243.4 330.2,226.1 310.2,226.1 300.4,244.2 
	311.2,261.4 333.2,260.5 "/>
<polygon fill="#FFFFFF" stroke="#000000" stroke-miterlimit="10" points="383.2,243.4 375.4,226.1 355.4,226.1 345.7,244.2 
	356.5,261.4 378.4,260.5 "/>
<polygon fill="#FFFFFF" stroke="#000000" stroke-miterlimit="10" points="428,243.4 420.2,226.1 400.3,226.1 390.5,244.2 
	401.3,261.4 423.2,260.5 "/>
<polygon fill="#FFFFFF" stroke="#000000" stroke-miterlimit="10" points="472.9,243.4 465.2,226.1 445.2,226.1 435.4,244.2 
	446.2,261.4 468.2,260.5 "/>
<polygon fill="#FFFFFF" stroke="#000000" stroke-miterlimit="10" points="518.2,243.4 510.4,226.1 490.4,226.1 480.7,244.2 
	491.5,261.4 513.4,260.5 "/>
<polygon fill="#FFFFFF" stroke="#000000" stroke-miterlimit="10" points="563,243.4 555.2,226.1 535.3,226.1 525.5,244.2 
	536.3,261.4 558.2,260.5 "/>
<polygon fill="#FFFFFF" stroke="#000000" stroke-miterlimit="10" points="619.2,243.4 611.5,226.1 591.5,226.1 581.7,244.2 
	592.5,261.4 614.5,260.5 "/>
<polygon fill="#FFFFFF" stroke="#000000" stroke-miterlimit="10" points="664.5,243.4 656.7,226.1 636.7,226.1 627,244.2 
	637.8,261.4 659.7,260.5 "/>
<polygon fill="#FFFFFF" stroke="#000000" stroke-miterlimit="10" points="709.3,243.4 701.5,226.1 681.6,226.1 671.8,244.2 
	682.6,261.4 704.5,260.5 "/>
<polygon fill="#FFFFFF" stroke="#000000" stroke-miterlimit="10" points="754.2,243.4 746.5,226.1 726.5,226.1 716.7,244.2 
	727.5,261.4 749.5,260.5 "/>
<polygon fill="#FFFFFF" stroke="#000000" stroke-miterlimit="10" points="799.5,243.4 791.7,226.1 771.7,226.1 762,244.2 
	772.8,261.4 794.7,260.5 "/>
<polygon fill="#FFFFFF" stroke="#000000" stroke-miterlimit="10" points="844.3,243.4 836.5,226.1 816.6,226.1 806.8,244.2 
	817.6,261.4 839.5,260.5 "/>
<polygon fill="#FFFFFF" stroke="#000000" stroke-miterlimit="10" points="894.2,243.4 886.5,226.1 866.5,226.1 856.7,244.2 
	867.5,261.4 889.5,260.5 "/>
<polygon fill="#FFFFFF" stroke="#000000" stroke-miterlimit="10" points="939.5,243.4 931.7,226.1 911.7,226.1 902,244.2 
	912.8,261.4 934.7,260.5 "/>
<polygon fill="#FFFFFF" stroke="#000000" stroke-miterlimit="10" points="984.3,243.4 976.5,226.1 956.6,226.1 946.8,244.2 
	957.6,261.4 979.5,260.5 "/>
<polygon fill="#FFFFFF" stroke="#000000" stroke-miterlimit="10" points="1029.2,243.4 1021.5,226.1 1001.5,226.1 991.7,244.2 
	1002.5,261.4 1024.5,260.5 "/>
<polygon fill="#FFFFFF" stroke="#000000" stroke-miterlimit="10" points="1074.5,243.4 1066.7,226.1 1046.7,226.1 1037,244.2 
	1047.8,261.4 1069.7,260.5 "/>
<polygon fill="#FFFFFF" stroke="#000000" stroke-miterlimit="10" points="1119.3,243.4 1111.5,226.1 1091.6,226.1 1081.8,244.2 
	1092.6,261.4 1114.5,260.5 "/>
<polygon fill="#FFFFFF" stroke="#000000" stroke-miterlimit="10" points="63.1,291.4 55.4,274.1 35.4,274.1 25.6,292.2 36.4,309.4 
	58.4,308.5 "/>
<polygon fill="#FFFFFF" stroke="#000000" stroke-miterlimit="10" points="108.3,291.4 100.5,274.1 80.5,274.1 70.8,292.2 
	81.6,309.4 103.5,308.5 "/>
<polygon fill="#FFFFFF" stroke="#000000" stroke-miterlimit="10" points="153.2,291.4 145.4,274.1 125.5,274.1 115.7,292.2 
	126.5,309.4 148.4,308.5 "/>
<polygon fill="#FFFFFF" stroke="#000000" stroke-miterlimit="10" points="198.1,291.4 190.4,274.1 170.4,274.1 160.6,292.2 
	171.4,309.4 193.4,308.5 "/>
<polygon fill="#FFFFFF" stroke="#000000" stroke-miterlimit="10" points="243.3,291.4 235.5,274.1 215.5,274.1 205.8,292.2 
	216.6,309.4 238.5,308.5 "/>
<polygon fill="#FFFFFF" stroke="#000000" stroke-miterlimit="10" points="288.2,291.4 280.4,274.1 260.5,274.1 250.7,292.2 
	261.5,309.4 283.4,308.5 "/>
<polygon fill="#FFFFFF" stroke="#000000" stroke-miterlimit="10" points="338.1,291.4 330.4,274.1 310.4,274.1 300.6,292.2 
	311.4,309.4 333.4,308.5 "/>
<polygon fill="#FFFFFF" stroke="#000000" stroke-miterlimit="10" points="383.3,291.4 375.5,274.1 355.5,274.1 345.8,292.2 
	356.6,309.4 378.5,308.5 "/>
<polygon fill="#FFFFFF" stroke="#000000" stroke-miterlimit="10" points="428.2,291.4 420.4,274.1 400.5,274.1 390.7,292.2 
	401.5,309.4 423.4,308.5 "/>
<polygon fill="#FFFFFF" stroke="#000000" stroke-miterlimit="10" points="473.1,291.4 465.4,274.1 445.4,274.1 435.6,292.2 
	446.4,309.4 468.4,308.5 "/>
<polygon fill="#FFFFFF" stroke="#000000" stroke-miterlimit="10" points="518.3,291.4 510.5,274.1 490.5,274.1 480.8,292.2 
	491.6,309.4 513.5,308.5 "/>
<polygon fill="#FFFFFF" stroke="#000000" stroke-miterlimit="10" points="563.2,291.4 555.4,274.1 535.5,274.1 525.7,292.2 
	536.5,309.4 558.4,308.5 "/>
<polygon fill="#FFFFFF" stroke="#000000" stroke-miterlimit="10" points="619.4,291.4 611.7,274.1 591.7,274.1 581.9,292.2 
	592.7,309.4 614.7,308.5 "/>
<polygon fill="#FFFFFF" stroke="#000000" stroke-miterlimit="10" points="664.6,291.4 656.8,274.1 636.8,274.1 627.1,292.2 
	637.9,309.4 659.8,308.5 "/>
<polygon fill="#FFFFFF" stroke="#000000" stroke-miterlimit="10" points="709.5,291.4 701.7,274.1 681.8,274.1 672,292.2 
	682.8,309.4 704.7,308.5 "/>
<polygon fill="#FFFFFF" stroke="#000000" stroke-miterlimit="10" points="754.4,291.4 746.7,274.1 726.7,274.1 716.9,292.2 
	727.7,309.4 749.7,308.5 "/>
<polygon fill="#FFFFFF" stroke="#000000" stroke-miterlimit="10" points="799.6,291.4 791.8,274.1 771.8,274.1 762.1,292.2 
	772.9,309.4 794.8,308.5 "/>
<polygon fill="#FFFFFF" stroke="#000000" stroke-miterlimit="10" points="844.5,291.4 836.7,274.1 816.8,274.1 807,292.2 
	817.8,309.4 839.7,308.5 "/>
<polygon fill="#FFFFFF" stroke="#000000" stroke-miterlimit="10" points="894.4,291.4 886.7,274.1 866.7,274.1 856.9,292.2 
	867.7,309.4 889.7,308.5 "/>
<polygon fill="#FFFFFF" stroke="#000000" stroke-miterlimit="10" points="939.6,291.4 931.8,274.1 911.8,274.1 902.1,292.2 
	912.9,309.4 934.8,308.5 "/>
<polygon fill="#FFFFFF" stroke="#000000" stroke-miterlimit="10" points="984.5,291.4 976.7,274.1 956.8,274.1 947,292.2 
	957.8,309.4 979.7,308.5 "/>
<polygon fill="#FFFFFF" stroke="#000000" stroke-miterlimit="10" points="1029.4,291.4 1021.7,274.1 1001.7,274.1 991.9,292.2 
	1002.7,309.4 1024.7,308.5 "/>
<polygon fill="#FFFFFF" stroke="#000000" stroke-miterlimit="10" points="1074.6,291.4 1066.8,274.1 1046.8,274.1 1037.1,292.2 
	1047.9,309.4 1069.8,308.5 "/>
<polygon fill="#FFFFFF" stroke="#000000" stroke-miterlimit="10" points="1119.5,291.4 1111.7,274.1 1091.8,274.1 1082,292.2 
	1092.8,309.4 1114.7,308.5 "/>
<polygon fill="#FFFFFF" stroke="#000000" stroke-miterlimit="10" points="63,339.4 55.3,322.1 35.3,322.1 25.5,340.2 36.3,357.4 
	58.3,356.5 "/>
<polygon fill="#FFFFFF" stroke="#000000" stroke-miterlimit="10" points="108.3,339.4 100.5,322.1 80.5,322.1 70.8,340.2 
	81.6,357.4 103.5,356.5 "/>
<polygon fill="#FFFFFF" stroke="#000000" stroke-miterlimit="10" points="153.1,339.4 145.3,322.1 125.4,322.1 115.6,340.2 
	126.4,357.4 148.3,356.5 "/>
<polygon fill="#FFFFFF" stroke="#000000" stroke-miterlimit="10" points="198,339.4 190.3,322.1 170.3,322.1 160.5,340.2 
	171.3,357.4 193.3,356.5 "/>
<polygon fill="#FFFFFF" stroke="#000000" stroke-miterlimit="10" points="243.3,339.4 235.5,322.1 215.5,322.1 205.8,340.2 
	216.6,357.4 238.5,356.5 "/>
<polygon fill="#FFFFFF" stroke="#000000" stroke-miterlimit="10" points="288.1,339.4 280.3,322.1 260.4,322.1 250.6,340.2 
	261.4,357.4 283.3,356.5 "/>
<polygon fill="#FFFFFF" stroke="#000000" stroke-miterlimit="10" points="338,339.4 330.3,322.1 310.3,322.1 300.5,340.2 
	311.3,357.4 333.3,356.5 "/>
<polygon fill="#FFFFFF" stroke="#000000" stroke-miterlimit="10" points="383.3,339.4 375.5,322.1 355.5,322.1 345.8,340.2 
	356.6,357.4 378.5,356.5 "/>
<polygon fill="#FFFFFF" stroke="#000000" stroke-miterlimit="10" points="428.1,339.4 420.3,322.1 400.4,322.1 390.6,340.2 
	401.4,357.4 423.3,356.5 "/>
<polygon fill="#FFFFFF" stroke="#000000" stroke-miterlimit="10" points="473,339.4 465.3,322.1 445.3,322.1 435.5,340.2 
	446.3,357.4 468.3,356.5 "/>
<polygon fill="#FFFFFF" stroke="#000000" stroke-miterlimit="10" points="518.3,339.4 510.5,322.1 490.5,322.1 480.8,340.2 
	491.6,357.4 513.5,356.5 "/>
<polygon fill="#FFFFFF" stroke="#000000" stroke-miterlimit="10" points="563.1,339.4 555.3,322.1 535.4,322.1 525.6,340.2 
	536.4,357.4 558.3,356.5 "/>
<polygon fill="#FFFFFF" stroke="#000000" stroke-miterlimit="10" points="619.3,339.4 611.6,322.1 591.6,322.1 581.8,340.2 
	592.6,357.4 614.6,356.5 "/>
<polygon fill="#FFFFFF" stroke="#000000" stroke-miterlimit="10" points="664.6,339.4 656.8,322.1 636.8,322.1 627.1,340.2 
	637.9,357.4 659.8,356.5 "/>
<polygon fill="#FFFFFF" stroke="#000000" stroke-miterlimit="10" points="709.4,339.4 701.6,322.1 681.7,322.1 671.9,340.2 
	682.7,357.4 704.6,356.5 "/>
<polygon fill="#FFFFFF" stroke="#000000" stroke-miterlimit="10" points="754.3,339.4 746.6,322.1 726.6,322.1 716.8,340.2 
	727.6,357.4 749.6,356.5 "/>
<polygon fill="#FFFFFF" stroke="#000000" stroke-miterlimit="10" points="799.6,339.4 791.8,322.1 771.8,322.1 762.1,340.2 
	772.9,357.4 794.8,356.5 "/>
<polygon fill="#FFFFFF" stroke="#000000" stroke-miterlimit="10" points="844.4,339.4 836.6,322.1 816.7,322.1 806.9,340.2 
	817.7,357.4 839.6,356.5 "/>
<polygon fill="#FFFFFF" stroke="#000000" stroke-miterlimit="10" points="894.3,339.4 886.6,322.1 866.6,322.1 856.8,340.2 
	867.6,357.4 889.6,356.5 "/>
<polygon fill="#FFFFFF" stroke="#000000" stroke-miterlimit="10" points="939.6,339.4 931.8,322.1 911.8,322.1 902.1,340.2 
	912.9,357.4 934.8,356.5 "/>
<polygon fill="#FFFFFF" stroke="#000000" stroke-miterlimit="10" points="984.4,339.4 976.6,322.1 956.7,322.1 946.9,340.2 
	957.7,357.4 979.6,356.5 "/>
<polygon fill="#FFFFFF" stroke="#000000" stroke-miterlimit="10" points="1029.3,339.4 1021.6,322.1 1001.6,322.1 991.8,340.2 
	1002.6,357.4 1024.6,356.5 "/>
<polygon fill="#FFFFFF" stroke="#000000" stroke-miterlimit="10" points="1074.6,339.4 1066.8,322.1 1046.8,322.1 1037.1,340.2 
	1047.9,357.4 1069.8,356.5 "/>
<polygon fill="#FFFFFF" stroke="#000000" stroke-miterlimit="10" points="1119.4,339.4 1111.6,322.1 1091.7,322.1 1081.9,340.2 
	1092.7,357.4 1114.6,356.5 "/>
<polygon fill="#FFFFFF" stroke="#000000" stroke-miterlimit="10" points="63.2,387.4 55.5,370.1 35.5,370.1 25.7,388.2 36.5,405.4 
	58.5,404.5 "/>
<polygon fill="#FFFFFF" stroke="#000000" stroke-miterlimit="10" points="108.4,387.4 100.6,370.1 80.6,370.1 70.9,388.2 
	81.7,405.4 103.6,404.5 "/>
<polygon fill="#FFFFFF" stroke="#000000" stroke-miterlimit="10" points="153.3,387.4 145.5,370.1 125.6,370.1 115.8,388.2 
	126.6,405.4 148.5,404.5 "/>
<polygon fill="#FFFFFF" stroke="#000000" stroke-miterlimit="10" points="198.2,387.4 190.5,370.1 170.5,370.1 160.7,388.2 
	171.5,405.4 193.5,404.5 "/>
<polygon fill="#FFFFFF" stroke="#000000" stroke-miterlimit="10" points="243.4,387.4 235.6,370.1 215.6,370.1 205.9,388.2 
	216.7,405.4 238.6,404.5 "/>
<polygon fill="#FFFFFF" stroke="#000000" stroke-miterlimit="10" points="288.3,387.4 280.5,370.1 260.6,370.1 250.8,388.2 
	261.6,405.4 283.5,404.5 "/>
<polygon fill="#FFFFFF" stroke="#000000" stroke-miterlimit="10" points="338.2,387.4 330.5,370.1 310.5,370.1 300.7,388.2 
	311.5,405.4 333.5,404.5 "/>
<polygon fill="#FFFFFF" stroke="#000000" stroke-miterlimit="10" points="383.4,387.4 375.6,370.1 355.6,370.1 345.9,388.2 
	356.7,405.4 378.6,404.5 "/>
<polygon fill="#FFFFFF" stroke="#000000" stroke-miterlimit="10" points="428.3,387.4 420.5,370.1 400.6,370.1 390.8,388.2 
	401.6,405.4 423.5,404.5 "/>
<polygon fill="#FFFFFF" stroke="#000000" stroke-miterlimit="10" points="473.2,387.4 465.5,370.1 445.5,370.1 435.7,388.2 
	446.5,405.4 468.5,404.5 "/>
<polygon fill="#FFFFFF" stroke="#000000" stroke-miterlimit="10" points="518.4,387.4 510.6,370.1 490.6,370.1 480.9,388.2 
	491.7,405.4 513.6,404.5 "/>
<polygon fill="#FFFFFF" stroke="#000000" stroke-miterlimit="10" points="563.3,387.4 555.5,370.1 535.6,370.1 525.8,388.2 
	536.6,405.4 558.5,404.5 "/>
<polygon fill="#FFFFFF" stroke="#000000" stroke-miterlimit="10" points="619.5,387.4 611.8,370.1 591.8,370.1 582,388.2 
	592.8,405.4 614.8,404.5 "/>
<polygon fill="#FFFFFF" stroke="#000000" stroke-miterlimit="10" points="664.7,387.4 656.9,370.1 636.9,370.1 627.2,388.2 
	638,405.4 659.9,404.5 "/>
<polygon fill="#FFFFFF" stroke="#000000" stroke-miterlimit="10" points="709.6,387.4 701.8,370.1 681.9,370.1 672.1,388.2 
	682.9,405.4 704.8,404.5 "/>
<polygon fill="#FFFFFF" stroke="#000000" stroke-miterlimit="10" points="754.5,387.4 746.8,370.1 726.8,370.1 717,388.2 
	727.8,405.4 749.8,404.5 "/>
<polygon fill="#FFFFFF" stroke="#000000" stroke-miterlimit="10" points="799.7,387.4 791.9,370.1 771.9,370.1 762.2,388.2 
	773,405.4 794.9,404.5 "/>
<polygon fill="#FFFFFF" stroke="#000000" stroke-miterlimit="10" points="844.6,387.4 836.8,370.1 816.9,370.1 807.1,388.2 
	817.9,405.4 839.8,404.5 "/>
<polygon fill="#FFFFFF" stroke="#000000" stroke-miterlimit="10" points="894.5,387.4 886.8,370.1 866.8,370.1 857,388.2 
	867.8,405.4 889.8,404.5 "/>
<polygon fill="#FFFFFF" stroke="#000000" stroke-miterlimit="10" points="939.7,387.4 931.9,370.1 911.9,370.1 902.2,388.2 
	913,405.4 934.9,404.5 "/>
<polygon fill="#FFFFFF" stroke="#000000" stroke-miterlimit="10" points="984.6,387.4 976.8,370.1 956.9,370.1 947.1,388.2 
	957.9,405.4 979.8,404.5 "/>
<polygon fill="#FFFFFF" stroke="#000000" stroke-miterlimit="10" points="1029.5,387.4 1021.8,370.1 1001.8,370.1 992,388.2 
	1002.8,405.4 1024.8,404.5 "/>
<polygon fill="#FFFFFF" stroke="#000000" stroke-miterlimit="10" points="1074.7,387.4 1066.9,370.1 1046.9,370.1 1037.2,388.2 
	1048,405.4 1069.9,404.5 "/>
<polygon fill="#FFFFFF" stroke="#000000" stroke-miterlimit="10" points="1119.6,387.4 1111.8,370.1 1091.9,370.1 1082.1,388.2 
	1092.9,405.4 1114.8,404.5 "/>
<polygon fill="#FFFFFF" stroke="#000000" stroke-miterlimit="10" points="63.2,431 55.5,413.7 35.5,413.7 25.7,431.9 36.5,449 
	58.5,448.2 "/>
<polygon fill="#FFFFFF" stroke="#000000" stroke-miterlimit="10" points="108.4,431 100.6,413.7 80.6,413.7 70.9,431.9 81.7,449 
	103.6,448.2 "/>
<polygon fill="#FFFFFF" stroke="#000000" stroke-miterlimit="10" points="153.3,431 145.5,413.7 125.6,413.7 115.8,431.9 126.6,449 
	148.5,448.2 "/>
<polygon fill="#FFFFFF" stroke="#000000" stroke-miterlimit="10" points="198.2,431 190.5,413.7 170.5,413.7 160.7,431.9 171.5,449 
	193.5,448.2 "/>
<polygon fill="#FFFFFF" stroke="#000000" stroke-miterlimit="10" points="243.4,431 235.6,413.7 215.6,413.7 205.9,431.9 216.7,449 
	238.6,448.2 "/>
<polygon fill="#FFFFFF" stroke="#000000" stroke-miterlimit="10" points="288.3,431 280.5,413.7 260.6,413.7 250.8,431.9 261.6,449 
	283.5,448.2 "/>
<polygon fill="#FFFFFF" stroke="#000000" stroke-miterlimit="10" points="338.2,431 330.5,413.7 310.5,413.7 300.7,431.9 311.5,449 
	333.5,448.2 "/>
<polygon fill="#FFFFFF" stroke="#000000" stroke-miterlimit="10" points="383.4,431 375.6,413.7 355.6,413.7 345.9,431.9 356.7,449 
	378.6,448.2 "/>
<polygon fill="#FFFFFF" stroke="#000000" stroke-miterlimit="10" points="428.3,431 420.5,413.7 400.6,413.7 390.8,431.9 401.6,449 
	423.5,448.2 "/>
<polygon fill="#FFFFFF" stroke="#000000" stroke-miterlimit="10" points="473.2,431 465.5,413.7 445.5,413.7 435.7,431.9 446.5,449 
	468.5,448.2 "/>
<polygon fill="#FFFFFF" stroke="#000000" stroke-miterlimit="10" points="518.4,431 510.6,413.7 490.6,413.7 480.9,431.9 491.7,449 
	513.6,448.2 "/>
<polygon fill="#FFFFFF" stroke="#000000" stroke-miterlimit="10" points="563.3,431 555.5,413.7 535.6,413.7 525.8,431.9 536.6,449 
	558.5,448.2 "/>
<polygon fill="#FFFFFF" stroke="#000000" stroke-miterlimit="10" points="619.5,431 611.8,413.7 591.8,413.7 582,431.9 592.8,449 
	614.8,448.2 "/>
<polygon fill="#FFFFFF" stroke="#000000" stroke-miterlimit="10" points="664.7,431 656.9,413.7 636.9,413.7 627.2,431.9 638,449 
	659.9,448.2 "/>
<polygon fill="#FFFFFF" stroke="#000000" stroke-miterlimit="10" points="709.6,431 701.8,413.7 681.9,413.7 672.1,431.9 682.9,449 
	704.8,448.2 "/>
<polygon fill="#FFFFFF" stroke="#000000" stroke-miterlimit="10" points="754.5,431 746.8,413.7 726.8,413.7 717,431.9 727.8,449 
	749.8,448.2 "/>
<polygon fill="#FFFFFF" stroke="#000000" stroke-miterlimit="10" points="799.7,431 791.9,413.7 771.9,413.7 762.2,431.9 773,449 
	794.9,448.2 "/>
<polygon fill="#FFFFFF" stroke="#000000" stroke-miterlimit="10" points="844.6,431 836.8,413.7 816.9,413.7 807.1,431.9 817.9,449 
	839.8,448.2 "/>
<polygon fill="#FFFFFF" stroke="#000000" stroke-miterlimit="10" points="894.5,431 886.8,413.7 866.8,413.7 857,431.9 867.8,449 
	889.8,448.2 "/>
<polygon fill="#FFFFFF" stroke="#000000" stroke-miterlimit="10" points="939.7,431 931.9,413.7 911.9,413.7 902.2,431.9 913,449 
	934.9,448.2 "/>
<polygon fill="#FFFFFF" stroke="#000000" stroke-miterlimit="10" points="984.6,431 976.8,413.7 956.9,413.7 947.1,431.9 957.9,449 
	979.8,448.2 "/>
<polygon fill="#FFFFFF" stroke="#000000" stroke-miterlimit="10" points="1029.5,431 1021.8,413.7 1001.8,413.7 992,431.9 
	1002.8,449 1024.8,448.2 "/>
<polygon fill="#FFFFFF" stroke="#000000" stroke-miterlimit="10" points="1074.7,431 1066.9,413.7 1046.9,413.7 1037.2,431.9 
	1048,449 1069.9,448.2 "/>
<polygon fill="#FFFFFF" stroke="#000000" stroke-miterlimit="10" points="1119.6,431 1111.8,413.7 1091.9,413.7 1082.1,431.9 
	1092.9,449 1114.8,448.2 "/>
<polygon fill="#FFFFFF" stroke="#000000" stroke-miterlimit="10" points="63.3,479 55.6,461.7 35.6,461.7 25.8,479.9 36.6,497 
	58.6,496.2 "/>
<polygon fill="#FFFFFF" stroke="#000000" stroke-miterlimit="10" points="108.6,479 100.8,461.7 80.8,461.7 71.1,479.9 81.9,497 
	103.8,496.2 "/>
<polygon fill="#FFFFFF" stroke="#000000" stroke-miterlimit="10" points="153.4,479 145.6,461.7 125.7,461.7 115.9,479.9 126.7,497 
	148.6,496.2 "/>
<polygon fill="#FFFFFF" stroke="#000000" stroke-miterlimit="10" points="198.3,479 190.6,461.7 170.6,461.7 160.8,479.9 171.6,497 
	193.6,496.2 "/>
<polygon fill="#FFFFFF" stroke="#000000" stroke-miterlimit="10" points="243.6,479 235.8,461.7 215.8,461.7 206.1,479.9 216.9,497 
	238.8,496.2 "/>
<polygon fill="#FFFFFF" stroke="#000000" stroke-miterlimit="10" points="288.4,479 280.6,461.7 260.7,461.7 250.9,479.9 261.7,497 
	283.6,496.2 "/>
<polygon fill="#FFFFFF" stroke="#000000" stroke-miterlimit="10" points="338.3,479 330.6,461.7 310.6,461.7 300.8,479.9 311.6,497 
	333.6,496.2 "/>
<polygon fill="#FFFFFF" stroke="#000000" stroke-miterlimit="10" points="383.6,479 375.8,461.7 355.8,461.7 346.1,479.9 356.9,497 
	378.8,496.2 "/>
<polygon fill="#FFFFFF" stroke="#000000" stroke-miterlimit="10" points="428.4,479 420.6,461.7 400.7,461.7 390.9,479.9 401.7,497 
	423.6,496.2 "/>
<polygon fill="#FFFFFF" stroke="#000000" stroke-miterlimit="10" points="473.3,479 465.6,461.7 445.6,461.7 435.8,479.9 446.6,497 
	468.6,496.2 "/>
<polygon fill="#FFFFFF" stroke="#000000" stroke-miterlimit="10" points="518.6,479 510.8,461.7 490.8,461.7 481.1,479.9 491.9,497 
	513.8,496.2 "/>
<polygon fill="#FFFFFF" stroke="#000000" stroke-miterlimit="10" points="563.4,479 555.6,461.7 535.7,461.7 525.9,479.9 536.7,497 
	558.6,496.2 "/>
<polygon fill="#FFFFFF" stroke="#000000" stroke-miterlimit="10" points="619.6,479 611.9,461.7 591.9,461.7 582.1,479.9 592.9,497 
	614.9,496.2 "/>
<polygon fill="#FFFFFF" stroke="#000000" stroke-miterlimit="10" points="664.9,479 657.1,461.7 637.1,461.7 627.4,479.9 638.2,497 
	660.1,496.2 "/>
<polygon fill="#FFFFFF" stroke="#000000" stroke-miterlimit="10" points="709.7,479 701.9,461.7 682,461.7 672.2,479.9 683,497 
	704.9,496.2 "/>
<polygon fill="#FFFFFF" stroke="#000000" stroke-miterlimit="10" points="754.6,479 746.9,461.7 726.9,461.7 717.1,479.9 727.9,497 
	749.9,496.2 "/>
<polygon fill="#FFFFFF" stroke="#000000" stroke-miterlimit="10" points="799.9,479 792.1,461.7 772.1,461.7 762.4,479.9 773.2,497 
	795.1,496.2 "/>
<polygon fill="#FFFFFF" stroke="#000000" stroke-miterlimit="10" points="844.7,479 836.9,461.7 817,461.7 807.2,479.9 818,497 
	839.9,496.2 "/>
<polygon fill="#FFFFFF" stroke="#000000" stroke-miterlimit="10" points="894.6,479 886.9,461.7 866.9,461.7 857.1,479.9 867.9,497 
	889.9,496.2 "/>
<polygon fill="#FFFFFF" stroke="#000000" stroke-miterlimit="10" points="939.9,479 932.1,461.7 912.1,461.7 902.4,479.9 913.2,497 
	935.1,496.2 "/>
<polygon fill="#FFFFFF" stroke="#000000" stroke-miterlimit="10" points="984.7,479 976.9,461.7 957,461.7 947.2,479.9 958,497 
	979.9,496.2 "/>
<polygon fill="#FFFFFF" stroke="#000000" stroke-miterlimit="10" points="1029.6,479 1021.9,461.7 1001.9,461.7 992.1,479.9 
	1002.9,497 1024.9,496.2 "/>
<polygon fill="#FFFFFF" stroke="#000000" stroke-miterlimit="10" points="1074.9,479 1067.1,461.7 1047.1,461.7 1037.4,479.9 
	1048.2,497 1070.1,496.2 "/>
<polygon fill="#FFFFFF" stroke="#000000" stroke-miterlimit="10" points="1119.7,479 1111.9,461.7 1092,461.7 1082.2,479.9 
	1093,497 1114.9,496.2 "/>
<polygon fill="#FFFFFF" stroke="#000000" stroke-miterlimit="10" points="63.3,527 55.6,509.7 35.6,509.7 25.8,527.9 36.6,545 
	58.6,544.2 "/>
<polygon fill="#FFFFFF" stroke="#000000" stroke-miterlimit="10" points="108.5,527 100.7,509.7 80.7,509.7 71,527.9 81.8,545 
	103.7,544.2 "/>
<polygon fill="#FFFFFF" stroke="#000000" stroke-miterlimit="10" points="153.4,527 145.6,509.7 125.7,509.7 115.9,527.9 126.7,545 
	148.6,544.2 "/>
<polygon fill="#FFFFFF" stroke="#000000" stroke-miterlimit="10" points="198.3,527 190.6,509.7 170.6,509.7 160.8,527.9 171.6,545 
	193.6,544.2 "/>
<polygon fill="#FFFFFF" stroke="#000000" stroke-miterlimit="10" points="243.5,527 235.7,509.7 215.7,509.7 206,527.9 216.8,545 
	238.7,544.2 "/>
<polygon fill="#FFFFFF" stroke="#000000" stroke-miterlimit="10" points="288.4,527 280.6,509.7 260.7,509.7 250.9,527.9 261.7,545 
	283.6,544.2 "/>
<polygon fill="#FFFFFF" stroke="#000000" stroke-miterlimit="10" points="338.3,527 330.6,509.7 310.6,509.7 300.8,527.9 311.6,545 
	333.6,544.2 "/>
<polygon fill="#FFFFFF" stroke="#000000" stroke-miterlimit="10" points="383.5,527 375.7,509.7 355.7,509.7 346,527.9 356.8,545 
	378.7,544.2 "/>
<polygon fill="#FFFFFF" stroke="#000000" stroke-miterlimit="10" points="428.4,527 420.6,509.7 400.7,509.7 390.9,527.9 401.7,545 
	423.6,544.2 "/>
<polygon fill="#FFFFFF" stroke="#000000" stroke-miterlimit="10" points="473.3,527 465.6,509.7 445.6,509.7 435.8,527.9 446.6,545 
	468.6,544.2 "/>
<polygon fill="#FFFFFF" stroke="#000000" stroke-miterlimit="10" points="518.5,527 510.7,509.7 490.7,509.7 481,527.9 491.8,545 
	513.7,544.2 "/>
<polygon fill="#FFFFFF" stroke="#000000" stroke-miterlimit="10" points="563.4,527 555.6,509.7 535.7,509.7 525.9,527.9 536.7,545 
	558.6,544.2 "/>
<polygon fill="#FFFFFF" stroke="#000000" stroke-miterlimit="10" points="619.6,527 611.9,509.7 591.9,509.7 582.1,527.9 592.9,545 
	614.9,544.2 "/>
<polygon fill="#FFFFFF" stroke="#000000" stroke-miterlimit="10" points="664.8,527 657,509.7 637,509.7 627.3,527.9 638.1,545 
	660,544.2 "/>
<polygon fill="#FFFFFF" stroke="#000000" stroke-miterlimit="10" points="709.7,527 701.9,509.7 682,509.7 672.2,527.9 683,545 
	704.9,544.2 "/>
<polygon fill="#FFFFFF" stroke="#000000" stroke-miterlimit="10" points="754.6,527 746.9,509.7 726.9,509.7 717.1,527.9 727.9,545 
	749.9,544.2 "/>
<polygon fill="#FFFFFF" stroke="#000000" stroke-miterlimit="10" points="799.8,527 792,509.7 772,509.7 762.3,527.9 773.1,545 
	795,544.2 "/>
<polygon fill="#FFFFFF" stroke="#000000" stroke-miterlimit="10" points="844.7,527 836.9,509.7 817,509.7 807.2,527.9 818,545 
	839.9,544.2 "/>
<polygon fill="#FFFFFF" stroke="#000000" stroke-miterlimit="10" points="894.6,527 886.9,509.7 866.9,509.7 857.1,527.9 867.9,545 
	889.9,544.2 "/>
<polygon fill="#FFFFFF" stroke="#000000" stroke-miterlimit="10" points="939.8,527 932,509.7 912,509.7 902.3,527.9 913.1,545 
	935,544.2 "/>
<polygon fill="#FFFFFF" stroke="#000000" stroke-miterlimit="10" points="984.7,527 976.9,509.7 957,509.7 947.2,527.9 958,545 
	979.9,544.2 "/>
<polygon fill="#FFFFFF" stroke="#000000" stroke-miterlimit="10" points="1029.6,527 1021.9,509.7 1001.9,509.7 992.1,527.9 
	1002.9,545 1024.9,544.2 "/>
<polygon fill="#FFFFFF" stroke="#000000" stroke-miterlimit="10" points="1074.8,527 1067,509.7 1047,509.7 1037.3,527.9 
	1048.1,545 1070,544.2 "/>
<polygon fill="#FFFFFF" stroke="#000000" stroke-miterlimit="10" points="1119.7,527 1111.9,509.7 1092,509.7 1082.2,527.9 
	1093,545 1114.9,544.2 "/>
<polygon fill="#FFFFFF" stroke="#000000" stroke-miterlimit="10" points="63.4,575 55.7,557.7 35.7,557.7 25.9,575.9 36.7,593 
	58.7,592.2 "/>
<polygon fill="#FFFFFF" stroke="#000000" stroke-miterlimit="10" points="108.7,575 100.9,557.7 80.9,557.7 71.2,575.9 82,593 
	103.9,592.2 "/>
<polygon fill="#FFFFFF" stroke="#000000" stroke-miterlimit="10" points="153.5,575 145.7,557.7 125.8,557.7 116,575.9 126.8,593 
	148.7,592.2 "/>
<polygon fill="#FFFFFF" stroke="#000000" stroke-miterlimit="10" points="198.4,575 190.7,557.7 170.7,557.7 160.9,575.9 171.7,593 
	193.7,592.2 "/>
<polygon fill="#FFFFFF" stroke="#000000" stroke-miterlimit="10" points="243.7,575 235.9,557.7 215.9,557.7 206.2,575.9 217,593 
	238.9,592.2 "/>
<polygon fill="#FFFFFF" stroke="#000000" stroke-miterlimit="10" points="288.5,575 280.7,557.7 260.8,557.7 251,575.9 261.8,593 
	283.7,592.2 "/>
<polygon fill="#FFFFFF" stroke="#000000" stroke-miterlimit="10" points="338.4,575 330.7,557.7 310.7,557.7 300.9,575.9 311.7,593 
	333.7,592.2 "/>
<polygon fill="#FFFFFF" stroke="#000000" stroke-miterlimit="10" points="383.7,575 375.9,557.7 355.9,557.7 346.2,575.9 357,593 
	378.9,592.2 "/>
<polygon fill="#FFFFFF" stroke="#000000" stroke-miterlimit="10" points="428.5,575 420.7,557.7 400.8,557.7 391,575.9 401.8,593 
	423.7,592.2 "/>
<polygon fill="#FFFFFF" stroke="#000000" stroke-miterlimit="10" points="473.4,575 465.7,557.7 445.7,557.7 435.9,575.9 446.7,593 
	468.7,592.2 "/>
<polygon fill="#FFFFFF" stroke="#000000" stroke-miterlimit="10" points="518.7,575 510.9,557.7 490.9,557.7 481.2,575.9 492,593 
	513.9,592.2 "/>
<polygon fill="#FFFFFF" stroke="#000000" stroke-miterlimit="10" points="563.5,575 555.7,557.7 535.8,557.7 526,575.9 536.8,593 
	558.7,592.2 "/>
<polygon fill="#FFFFFF" stroke="#000000" stroke-miterlimit="10" points="619.7,575 612,557.7 592,557.7 582.2,575.9 593,593 
	615,592.2 "/>
<polygon fill="#FFFFFF" stroke="#000000" stroke-miterlimit="10" points="665,575 657.2,557.7 637.2,557.7 627.5,575.9 638.3,593 
	660.2,592.2 "/>
<polygon fill="#FFFFFF" stroke="#000000" stroke-miterlimit="10" points="709.8,575 702,557.7 682.1,557.7 672.3,575.9 683.1,593 
	705,592.2 "/>
<polygon fill="#FFFFFF" stroke="#000000" stroke-miterlimit="10" points="754.7,575 747,557.7 727,557.7 717.2,575.9 728,593 
	750,592.2 "/>
<polygon fill="#FFFFFF" stroke="#000000" stroke-miterlimit="10" points="800,575 792.2,557.7 772.2,557.7 762.5,575.9 773.3,593 
	795.2,592.2 "/>
<polygon fill="#FFFFFF" stroke="#000000" stroke-miterlimit="10" points="844.8,575 837,557.7 817.1,557.7 807.3,575.9 818.1,593 
	840,592.2 "/>
<polygon fill="#FFFFFF" stroke="#000000" stroke-miterlimit="10" points="894.7,575 887,557.7 867,557.7 857.2,575.9 868,593 
	890,592.2 "/>
<polygon fill="#FFFFFF" stroke="#000000" stroke-miterlimit="10" points="940,575 932.2,557.7 912.2,557.7 902.5,575.9 913.3,593 
	935.2,592.2 "/>
<polygon fill="#FFFFFF" stroke="#000000" stroke-miterlimit="10" points="984.8,575 977,557.7 957.1,557.7 947.3,575.9 958.1,593 
	980,592.2 "/>
<polygon fill="#FFFFFF" stroke="#000000" stroke-miterlimit="10" points="1029.7,575 1022,557.7 1002,557.7 992.2,575.9 1003,593 
	1025,592.2 "/>
<polygon fill="#FFFFFF" stroke="#000000" stroke-miterlimit="10" points="1075,575 1067.2,557.7 1047.2,557.7 1037.5,575.9 
	1048.3,593 1070.2,592.2 "/>
<polygon fill="#FFFFFF" stroke="#000000" stroke-miterlimit="10" points="1119.8,575 1112,557.7 1092.1,557.7 1082.3,575.9 
	1093.1,593 1115,592.2 "/>
<polygon fill="#FFFFFF" stroke="#000000" stroke-miterlimit="10" points="63.2,624.3 55.5,607 35.5,607 25.7,625.2 36.5,642.3 
	58.5,641.5 "/>
<polygon fill="#FFFFFF" stroke="#000000" stroke-miterlimit="10" points="108.5,624.3 100.7,607 80.7,607 71,625.2 81.8,642.3 
	103.7,641.5 "/>
<polygon fill="#FFFFFF" stroke="#000000" stroke-miterlimit="10" points="153.3,624.3 145.5,607 125.6,607 115.8,625.2 126.6,642.3 
	148.5,641.5 "/>
<polygon fill="#FFFFFF" stroke="#000000" stroke-miterlimit="10" points="198.2,624.3 190.5,607 170.5,607 160.7,625.2 171.5,642.3 
	193.5,641.5 "/>
<polygon fill="#FFFFFF" stroke="#000000" stroke-miterlimit="10" points="243.5,624.3 235.7,607 215.7,607 206,625.2 216.8,642.3 
	238.7,641.5 "/>
<polygon fill="#FFFFFF" stroke="#000000" stroke-miterlimit="10" points="288.3,624.3 280.5,607 260.6,607 250.8,625.2 261.6,642.3 
	283.5,641.5 "/>
<polygon fill="#FFFFFF" stroke="#000000" stroke-miterlimit="10" points="338.2,624.3 330.5,607 310.5,607 300.7,625.2 311.5,642.3 
	333.5,641.5 "/>
<polygon fill="#FFFFFF" stroke="#000000" stroke-miterlimit="10" points="383.5,624.3 375.7,607 355.7,607 346,625.2 356.8,642.3 
	378.7,641.5 "/>
<polygon fill="#FFFFFF" stroke="#000000" stroke-miterlimit="10" points="428.3,624.3 420.5,607 400.6,607 390.8,625.2 401.6,642.3 
	423.5,641.5 "/>
<polygon fill="#FFFFFF" stroke="#000000" stroke-miterlimit="10" points="473.2,624.3 465.5,607 445.5,607 435.7,625.2 446.5,642.3 
	468.5,641.5 "/>
<polygon fill="#FFFFFF" stroke="#000000" stroke-miterlimit="10" points="518.5,624.3 510.7,607 490.7,607 481,625.2 491.8,642.3 
	513.7,641.5 "/>
<polygon fill="#FFFFFF" stroke="#000000" stroke-miterlimit="10" points="563.3,624.3 555.5,607 535.6,607 525.8,625.2 536.6,642.3 
	558.5,641.5 "/>
<polygon fill="#FFFFFF" stroke="#000000" stroke-miterlimit="10" points="619.5,624.3 611.8,607 591.8,607 582,625.2 592.8,642.3 
	614.8,641.5 "/>
<polygon fill="#FFFFFF" stroke="#000000" stroke-miterlimit="10" points="664.8,624.3 657,607 637,607 627.3,625.2 638.1,642.3 
	660,641.5 "/>
<polygon fill="#FFFFFF" stroke="#000000" stroke-miterlimit="10" points="709.6,624.3 701.8,607 681.9,607 672.1,625.2 682.9,642.3 
	704.8,641.5 "/>
<polygon fill="#FFFFFF" stroke="#000000" stroke-miterlimit="10" points="754.5,624.3 746.8,607 726.8,607 717,625.2 727.8,642.3 
	749.8,641.5 "/>
<polygon fill="#FFFFFF" stroke="#000000" stroke-miterlimit="10" points="799.8,624.3 792,607 772,607 762.3,625.2 773.1,642.3 
	795,641.5 "/>
<polygon fill="#FFFFFF" stroke="#000000" stroke-miterlimit="10" points="844.6,624.3 836.8,607 816.9,607 807.1,625.2 817.9,642.3 
	839.8,641.5 "/>
<polygon fill="#FFFFFF" stroke="#000000" stroke-miterlimit="10" points="894.5,624.3 886.8,607 866.8,607 857,625.2 867.8,642.3 
	889.8,641.5 "/>
<polygon fill="#FFFFFF" stroke="#000000" stroke-miterlimit="10" points="939.8,624.3 932,607 912,607 902.3,625.2 913.1,642.3 
	935,641.5 "/>
<polygon fill="#FFFFFF" stroke="#000000" stroke-miterlimit="10" points="984.6,624.3 976.8,607 956.9,607 947.1,625.2 957.9,642.3 
	979.8,641.5 "/>
<polygon fill="#FFFFFF" stroke="#000000" stroke-miterlimit="10" points="1029.5,624.3 1021.8,607 1001.8,607 992,625.2 
	1002.8,642.3 1024.8,641.5 "/>
<polygon fill="#FFFFFF" stroke="#000000" stroke-miterlimit="10" points="1074.8,624.3 1067,607 1047,607 1037.3,625.2 
	1048.1,642.3 1070,641.5 "/>
<polygon fill="#FFFFFF" stroke="#000000" stroke-miterlimit="10" points="1119.6,624.3 1111.8,607 1091.9,607 1082.1,625.2 
	1092.9,642.3 1114.8,641.5 "/>
<polygon fill="#FFFFFF" stroke="#000000" stroke-miterlimit="10" points="63.4,672.3 55.7,655 35.7,655 25.9,673.2 36.7,690.3 
	58.7,689.5 "/>
<polygon fill="#FFFFFF" stroke="#000000" stroke-miterlimit="10" points="108.6,672.3 100.8,655 80.8,655 71.1,673.2 81.9,690.3 
	103.8,689.5 "/>
<polygon fill="#FFFFFF" stroke="#000000" stroke-miterlimit="10" points="153.5,672.3 145.7,655 125.8,655 116,673.2 126.8,690.3 
	148.7,689.5 "/>
<polygon fill="#FFFFFF" stroke="#000000" stroke-miterlimit="10" points="198.4,672.3 190.7,655 170.7,655 160.9,673.2 171.7,690.3 
	193.7,689.5 "/>
<polygon fill="#FFFFFF" stroke="#000000" stroke-miterlimit="10" points="243.6,672.3 235.8,655 215.8,655 206.1,673.2 216.9,690.3 
	238.8,689.5 "/>
<polygon fill="#FFFFFF" stroke="#000000" stroke-miterlimit="10" points="288.5,672.3 280.7,655 260.8,655 251,673.2 261.8,690.3 
	283.7,689.5 "/>
<polygon fill="#FFFFFF" stroke="#000000" stroke-miterlimit="10" points="338.4,672.3 330.7,655 310.7,655 300.9,673.2 311.7,690.3 
	333.7,689.5 "/>
<polygon fill="#FFFFFF" stroke="#000000" stroke-miterlimit="10" points="383.6,672.3 375.8,655 355.8,655 346.1,673.2 356.9,690.3 
	378.8,689.5 "/>
<polygon fill="#FFFFFF" stroke="#000000" stroke-miterlimit="10" points="428.5,672.3 420.7,655 400.8,655 391,673.2 401.8,690.3 
	423.7,689.5 "/>
<polygon fill="#FFFFFF" stroke="#000000" stroke-miterlimit="10" points="473.4,672.3 465.7,655 445.7,655 435.9,673.2 446.7,690.3 
	468.7,689.5 "/>
<polygon fill="#FFFFFF" stroke="#000000" stroke-miterlimit="10" points="518.6,672.3 510.8,655 490.8,655 481.1,673.2 491.9,690.3 
	513.8,689.5 "/>
<polygon fill="#FFFFFF" stroke="#000000" stroke-miterlimit="10" points="563.5,672.3 555.7,655 535.8,655 526,673.2 536.8,690.3 
	558.7,689.5 "/>
<polygon fill="#FFFFFF" stroke="#000000" stroke-miterlimit="10" points="619.7,672.3 612,655 592,655 582.2,673.2 593,690.3 
	615,689.5 "/>
<polygon fill="#FFFFFF" stroke="#000000" stroke-miterlimit="10" points="664.9,672.3 657.1,655 637.1,655 627.4,673.2 638.2,690.3 
	660.1,689.5 "/>
<polygon fill="#FFFFFF" stroke="#000000" stroke-miterlimit="10" points="709.8,672.3 702,655 682.1,655 672.3,673.2 683.1,690.3 
	705,689.5 "/>
<polygon fill="#FFFFFF" stroke="#000000" stroke-miterlimit="10" points="754.7,672.3 747,655 727,655 717.2,673.2 728,690.3 
	750,689.5 "/>
<polygon fill="#FFFFFF" stroke="#000000" stroke-miterlimit="10" points="799.9,672.3 792.1,655 772.1,655 762.4,673.2 773.2,690.3 
	795.1,689.5 "/>
<polygon fill="#FFFFFF" stroke="#000000" stroke-miterlimit="10" points="844.8,672.3 837,655 817.1,655 807.3,673.2 818.1,690.3 
	840,689.5 "/>
<polygon fill="#FFFFFF" stroke="#000000" stroke-miterlimit="10" points="894.7,672.3 887,655 867,655 857.2,673.2 868,690.3 
	890,689.5 "/>
<polygon fill="#FFFFFF" stroke="#000000" stroke-miterlimit="10" points="939.9,672.3 932.1,655 912.1,655 902.4,673.2 913.2,690.3 
	935.1,689.5 "/>
<polygon fill="#FFFFFF" stroke="#000000" stroke-miterlimit="10" points="984.8,672.3 977,655 957.1,655 947.3,673.2 958.1,690.3 
	980,689.5 "/>
<polygon fill="#FFFFFF" stroke="#000000" stroke-miterlimit="10" points="1029.7,672.3 1022,655 1002,655 992.2,673.2 1003,690.3 
	1025,689.5 "/>
<polygon fill="#FFFFFF" stroke="#000000" stroke-miterlimit="10" points="1074.9,672.3 1067.1,655 1047.1,655 1037.4,673.2 
	1048.2,690.3 1070.1,689.5 "/>
<polygon fill="#FFFFFF" stroke="#000000" stroke-miterlimit="10" points="1119.8,672.3 1112,655 1092.1,655 1082.3,673.2 
	1093.1,690.3 1115,689.5 "/>
<polygon fill="#FFFFFF" stroke="#000000" stroke-miterlimit="10" points="63.3,720.3 55.6,703 35.6,703 25.8,721.2 36.6,738.3 
	58.6,737.5 "/>
<polygon fill="#FFFFFF" stroke="#000000" stroke-miterlimit="10" points="108.5,720.3 100.7,703 80.7,703 71,721.2 81.8,738.3 
	103.7,737.5 "/>
<polygon fill="#FFFFFF" stroke="#000000" stroke-miterlimit="10" points="153.4,720.3 145.6,703 125.7,703 115.9,721.2 126.7,738.3 
	148.6,737.5 "/>
<polygon fill="#FFFFFF" stroke="#000000" stroke-miterlimit="10" points="198.3,720.3 190.6,703 170.6,703 160.8,721.2 171.6,738.3 
	193.6,737.5 "/>
<polygon fill="#FFFFFF" stroke="#000000" stroke-miterlimit="10" points="243.5,720.3 235.7,703 215.7,703 206,721.2 216.8,738.3 
	238.7,737.5 "/>
<polygon fill="#FFFFFF" stroke="#000000" stroke-miterlimit="10" points="288.4,720.3 280.6,703 260.7,703 250.9,721.2 261.7,738.3 
	283.6,737.5 "/>
<polygon fill="#FFFFFF" stroke="#000000" stroke-miterlimit="10" points="338.3,720.3 330.6,703 310.6,703 300.8,721.2 311.6,738.3 
	333.6,737.5 "/>
<polygon fill="#FFFFFF" stroke="#000000" stroke-miterlimit="10" points="383.5,720.3 375.7,703 355.7,703 346,721.2 356.8,738.3 
	378.7,737.5 "/>
<polygon fill="#FFFFFF" stroke="#000000" stroke-miterlimit="10" points="428.4,720.3 420.6,703 400.7,703 390.9,721.2 401.7,738.3 
	423.6,737.5 "/>
<polygon fill="#FFFFFF" stroke="#000000" stroke-miterlimit="10" points="473.3,720.3 465.6,703 445.6,703 435.8,721.2 446.6,738.3 
	468.6,737.5 "/>
<polygon fill="#FFFFFF" stroke="#000000" stroke-miterlimit="10" points="518.5,720.3 510.7,703 490.7,703 481,721.2 491.8,738.3 
	513.7,737.5 "/>
<polygon fill="#FFFFFF" stroke="#000000" stroke-miterlimit="10" points="563.4,720.3 555.6,703 535.7,703 525.9,721.2 536.7,738.3 
	558.6,737.5 "/>
<polygon fill="#FFFFFF" stroke="#000000" stroke-miterlimit="10" points="619.6,720.3 611.9,703 591.9,703 582.1,721.2 592.9,738.3 
	614.9,737.5 "/>
<polygon fill="#FFFFFF" stroke="#000000" stroke-miterlimit="10" points="664.8,720.3 657,703 637,703 627.3,721.2 638.1,738.3 
	660,737.5 "/>
<polygon fill="#FFFFFF" stroke="#000000" stroke-miterlimit="10" points="709.7,720.3 701.9,703 682,703 672.2,721.2 683,738.3 
	704.9,737.5 "/>
<polygon fill="#FFFFFF" stroke="#000000" stroke-miterlimit="10" points="754.6,720.3 746.9,703 726.9,703 717.1,721.2 727.9,738.3 
	749.9,737.5 "/>
<polygon fill="#FFFFFF" stroke="#000000" stroke-miterlimit="10" points="799.8,720.3 792,703 772,703 762.3,721.2 773.1,738.3 
	795,737.5 "/>
<polygon fill="#FFFFFF" stroke="#000000" stroke-miterlimit="10" points="844.7,720.3 836.9,703 817,703 807.2,721.2 818,738.3 
	839.9,737.5 "/>
<polygon fill="#FFFFFF" stroke="#000000" stroke-miterlimit="10" points="894.6,720.3 886.9,703 866.9,703 857.1,721.2 867.9,738.3 
	889.9,737.5 "/>
<polygon fill="#FFFFFF" stroke="#000000" stroke-miterlimit="10" points="939.8,720.3 932,703 912,703 902.3,721.2 913.1,738.3 
	935,737.5 "/>
<polygon fill="#FFFFFF" stroke="#000000" stroke-miterlimit="10" points="984.7,720.3 976.9,703 957,703 947.2,721.2 958,738.3 
	979.9,737.5 "/>
<polygon fill="#FFFFFF" stroke="#000000" stroke-miterlimit="10" points="1029.6,720.3 1021.9,703 1001.9,703 992.1,721.2 
	1002.9,738.3 1024.9,737.5 "/>
<polygon fill="#FFFFFF" stroke="#000000" stroke-miterlimit="10" points="1074.8,720.3 1067,703 1047,703 1037.3,721.2 
	1048.1,738.3 1070,737.5 "/>
<polygon fill="#FFFFFF" stroke="#000000" stroke-miterlimit="10" points="1119.7,720.3 1111.9,703 1092,703 1082.2,721.2 
	1093,738.3 1114.9,737.5 "/>
<polygon fill="#FFFFFF" stroke="#000000" stroke-miterlimit="10" points="63.4,768.3 55.7,751 35.7,751 25.9,769.2 36.7,786.3 
	58.7,785.5 "/>
<polygon fill="#FFFFFF" stroke="#000000" stroke-miterlimit="10" points="108.7,768.3 100.9,751 80.9,751 71.2,769.2 82,786.3 
	103.9,785.5 "/>
<polygon fill="#FFFFFF" stroke="#000000" stroke-miterlimit="10" points="153.5,768.3 145.7,751 125.8,751 116,769.2 126.8,786.3 
	148.7,785.5 "/>
<polygon fill="#FFFFFF" stroke="#000000" stroke-miterlimit="10" points="198.4,768.3 190.7,751 170.7,751 160.9,769.2 171.7,786.3 
	193.7,785.5 "/>
<polygon fill="#FFFFFF" stroke="#000000" stroke-miterlimit="10" points="243.7,768.3 235.9,751 215.9,751 206.2,769.2 217,786.3 
	238.9,785.5 "/>
<polygon fill="#FFFFFF" stroke="#000000" stroke-miterlimit="10" points="288.5,768.3 280.7,751 260.8,751 251,769.2 261.8,786.3 
	283.7,785.5 "/>
<polygon fill="#FFFFFF" stroke="#000000" stroke-miterlimit="10" points="338.4,768.3 330.7,751 310.7,751 300.9,769.2 311.7,786.3 
	333.7,785.5 "/>
<polygon fill="#FFFFFF" stroke="#000000" stroke-miterlimit="10" points="383.7,768.3 375.9,751 355.9,751 346.2,769.2 357,786.3 
	378.9,785.5 "/>
<polygon fill="#FFFFFF" stroke="#000000" stroke-miterlimit="10" points="428.5,768.3 420.7,751 400.8,751 391,769.2 401.8,786.3 
	423.7,785.5 "/>
<polygon fill="#FFFFFF" stroke="#000000" stroke-miterlimit="10" points="473.4,768.3 465.7,751 445.7,751 435.9,769.2 446.7,786.3 
	468.7,785.5 "/>
<polygon fill="#FFFFFF" stroke="#000000" stroke-miterlimit="10" points="518.7,768.3 510.9,751 490.9,751 481.2,769.2 492,786.3 
	513.9,785.5 "/>
<polygon fill="#FFFFFF" stroke="#000000" stroke-miterlimit="10" points="563.5,768.3 555.7,751 535.8,751 526,769.2 536.8,786.3 
	558.7,785.5 "/>
<polygon fill="#FFFFFF" stroke="#000000" stroke-miterlimit="10" points="619.7,768.3 612,751 592,751 582.2,769.2 593,786.3 
	615,785.5 "/>
<polygon fill="#FFFFFF" stroke="#000000" stroke-miterlimit="10" points="665,768.3 657.2,751 637.2,751 627.5,769.2 638.3,786.3 
	660.2,785.5 "/>
<polygon fill="#FFFFFF" stroke="#000000" stroke-miterlimit="10" points="709.8,768.3 702,751 682.1,751 672.3,769.2 683.1,786.3 
	705,785.5 "/>
<polygon fill="#FFFFFF" stroke="#000000" stroke-miterlimit="10" points="754.7,768.3 747,751 727,751 717.2,769.2 728,786.3 
	750,785.5 "/>
<polygon fill="#FFFFFF" stroke="#000000" stroke-miterlimit="10" points="800,768.3 792.2,751 772.2,751 762.5,769.2 773.3,786.3 
	795.2,785.5 "/>
<polygon fill="#FFFFFF" stroke="#000000" stroke-miterlimit="10" points="844.8,768.3 837,751 817.1,751 807.3,769.2 818.1,786.3 
	840,785.5 "/>
<polygon fill="#FFFFFF" stroke="#000000" stroke-miterlimit="10" points="894.7,768.3 887,751 867,751 857.2,769.2 868,786.3 
	890,785.5 "/>
<polygon fill="#FFFFFF" stroke="#000000" stroke-miterlimit="10" points="940,768.3 932.2,751 912.2,751 902.5,769.2 913.3,786.3 
	935.2,785.5 "/>
<polygon fill="#FFFFFF" stroke="#000000" stroke-miterlimit="10" points="984.8,768.3 977,751 957.1,751 947.3,769.2 958.1,786.3 
	980,785.5 "/>
<polygon fill="#FFFFFF" stroke="#000000" stroke-miterlimit="10" points="1029.7,768.3 1022,751 1002,751 992.2,769.2 1003,786.3 
	1025,785.5 "/>
<polygon fill="#FFFFFF" stroke="#000000" stroke-miterlimit="10" points="1075,768.3 1067.2,751 1047.2,751 1037.5,769.2 
	1048.3,786.3 1070.2,785.5 "/>
<polygon fill="#FFFFFF" stroke="#000000" stroke-miterlimit="10" points="1119.8,768.3 1112,751 1092.1,751 1082.3,769.2 
	1093.1,786.3 1115,785.5 "/>
<polygon fill="#FFFFFF" stroke="#000000" stroke-miterlimit="10" points="63.2,817 55.5,799.7 35.5,799.7 25.7,817.9 36.5,835 
	58.5,834.2 "/>
<polygon fill="#FFFFFF" stroke="#000000" stroke-miterlimit="10" points="108.4,817 100.6,799.7 80.6,799.7 70.9,817.9 81.7,835 
	103.6,834.2 "/>
<polygon fill="#FFFFFF" stroke="#000000" stroke-miterlimit="10" points="153.3,817 145.5,799.7 125.6,799.7 115.8,817.9 126.6,835 
	148.5,834.2 "/>
<polygon fill="#FFFFFF" stroke="#000000" stroke-miterlimit="10" points="198.2,817 190.5,799.7 170.5,799.7 160.7,817.9 171.5,835 
	193.5,834.2 "/>
<polygon fill="#FFFFFF" stroke="#000000" stroke-miterlimit="10" points="243.4,817 235.6,799.7 215.6,799.7 205.9,817.9 216.7,835 
	238.6,834.2 "/>
<polygon fill="#FFFFFF" stroke="#000000" stroke-miterlimit="10" points="288.3,817 280.5,799.7 260.6,799.7 250.8,817.9 261.6,835 
	283.5,834.2 "/>
<polygon fill="#FFFFFF" stroke="#000000" stroke-miterlimit="10" points="338.2,817 330.5,799.7 310.5,799.7 300.7,817.9 311.5,835 
	333.5,834.2 "/>
<polygon fill="#FFFFFF" stroke="#000000" stroke-miterlimit="10" points="383.4,817 375.6,799.7 355.6,799.7 345.9,817.9 356.7,835 
	378.6,834.2 "/>
<polygon fill="#FFFFFF" stroke="#000000" stroke-miterlimit="10" points="428.3,817 420.5,799.7 400.6,799.7 390.8,817.9 401.6,835 
	423.5,834.2 "/>
<polygon fill="#FFFFFF" stroke="#000000" stroke-miterlimit="10" points="473.2,817 465.5,799.7 445.5,799.7 435.7,817.9 446.5,835 
	468.5,834.2 "/>
<polygon fill="#FFFFFF" stroke="#000000" stroke-miterlimit="10" points="518.4,817 510.6,799.7 490.6,799.7 480.9,817.9 491.7,835 
	513.6,834.2 "/>
<polygon fill="#FFFFFF" stroke="#000000" stroke-miterlimit="10" points="563.3,817 555.5,799.7 535.6,799.7 525.8,817.9 536.6,835 
	558.5,834.2 "/>
<polygon fill="#FFFFFF" stroke="#000000" stroke-miterlimit="10" points="619.5,817 611.8,799.7 591.8,799.7 582,817.9 592.8,835 
	614.8,834.2 "/>
<polygon fill="#FFFFFF" stroke="#000000" stroke-miterlimit="10" points="664.7,817 656.9,799.7 636.9,799.7 627.2,817.9 638,835 
	659.9,834.2 "/>
<polygon fill="#FFFFFF" stroke="#000000" stroke-miterlimit="10" points="709.6,817 701.8,799.7 681.9,799.7 672.1,817.9 682.9,835 
	704.8,834.2 "/>
<polygon fill="#FFFFFF" stroke="#000000" stroke-miterlimit="10" points="754.5,817 746.8,799.7 726.8,799.7 717,817.9 727.8,835 
	749.8,834.2 "/>
<polygon fill="#FFFFFF" stroke="#000000" stroke-miterlimit="10" points="799.7,817 791.9,799.7 771.9,799.7 762.2,817.9 773,835 
	794.9,834.2 "/>
<polygon fill="#FFFFFF" stroke="#000000" stroke-miterlimit="10" points="844.6,817 836.8,799.7 816.9,799.7 807.1,817.9 817.9,835 
	839.8,834.2 "/>
<polygon fill="#FFFFFF" stroke="#000000" stroke-miterlimit="10" points="894.5,817 886.8,799.7 866.8,799.7 857,817.9 867.8,835 
	889.8,834.2 "/>
<polygon fill="#FFFFFF" stroke="#000000" stroke-miterlimit="10" points="939.7,817 931.9,799.7 911.9,799.7 902.2,817.9 913,835 
	934.9,834.2 "/>
<polygon fill="#FFFFFF" stroke="#000000" stroke-miterlimit="10" points="984.6,817 976.8,799.7 956.9,799.7 947.1,817.9 957.9,835 
	979.8,834.2 "/>
<polygon fill="#FFFFFF" stroke="#000000" stroke-miterlimit="10" points="1029.5,817 1021.8,799.7 1001.8,799.7 992,817.9 
	1002.8,835 1024.8,834.2 "/>
<polygon fill="#FFFFFF" stroke="#000000" stroke-miterlimit="10" points="1074.7,817 1066.9,799.7 1046.9,799.7 1037.2,817.9 
	1048,835 1069.9,834.2 "/>
<polygon fill="#FFFFFF" stroke="#000000" stroke-miterlimit="10" points="1119.6,817 1111.8,799.7 1091.9,799.7 1082.1,817.9 
	1092.9,835 1114.8,834.2 "/>
<polygon fill="#FFFFFF" stroke="#000000" stroke-miterlimit="10" points="63.3,865 55.6,847.7 35.6,847.7 25.8,865.9 36.6,883 
	58.6,882.2 "/>
<polygon fill="#FFFFFF" stroke="#000000" stroke-miterlimit="10" points="108.6,865 100.8,847.7 80.8,847.7 71.1,865.9 81.9,883 
	103.8,882.2 "/>
<polygon fill="#FFFFFF" stroke="#000000" stroke-miterlimit="10" points="153.4,865 145.6,847.7 125.7,847.7 115.9,865.9 126.7,883 
	148.6,882.2 "/>
<polygon fill="#FFFFFF" stroke="#000000" stroke-miterlimit="10" points="198.3,865 190.6,847.7 170.6,847.7 160.8,865.9 171.6,883 
	193.6,882.2 "/>
<polygon fill="#FFFFFF" stroke="#000000" stroke-miterlimit="10" points="243.6,865 235.8,847.7 215.8,847.7 206.1,865.9 216.9,883 
	238.8,882.2 "/>
<polygon fill="#FFFFFF" stroke="#000000" stroke-miterlimit="10" points="288.4,865 280.6,847.7 260.7,847.7 250.9,865.9 261.7,883 
	283.6,882.2 "/>
<polygon fill="#FFFFFF" stroke="#000000" stroke-miterlimit="10" points="338.3,865 330.6,847.7 310.6,847.7 300.8,865.9 311.6,883 
	333.6,882.2 "/>
<polygon fill="#FFFFFF" stroke="#000000" stroke-miterlimit="10" points="383.6,865 375.8,847.7 355.8,847.7 346.1,865.9 356.9,883 
	378.8,882.2 "/>
<polygon fill="#FFFFFF" stroke="#000000" stroke-miterlimit="10" points="428.4,865 420.6,847.7 400.7,847.7 390.9,865.9 401.7,883 
	423.6,882.2 "/>
<polygon fill="#FFFFFF" stroke="#000000" stroke-miterlimit="10" points="473.3,865 465.6,847.7 445.6,847.7 435.8,865.9 446.6,883 
	468.6,882.2 "/>
<polygon fill="#FFFFFF" stroke="#000000" stroke-miterlimit="10" points="518.6,865 510.8,847.7 490.8,847.7 481.1,865.9 491.9,883 
	513.8,882.2 "/>
<polygon fill="#FFFFFF" stroke="#000000" stroke-miterlimit="10" points="563.4,865 555.6,847.7 535.7,847.7 525.9,865.9 536.7,883 
	558.6,882.2 "/>
<polygon fill="#FFFFFF" stroke="#000000" stroke-miterlimit="10" points="619.6,865 611.9,847.7 591.9,847.7 582.1,865.9 592.9,883 
	614.9,882.2 "/>
<polygon fill="#FFFFFF" stroke="#000000" stroke-miterlimit="10" points="664.9,865 657.1,847.7 637.1,847.7 627.4,865.9 638.2,883 
	660.1,882.2 "/>
<polygon fill="#FFFFFF" stroke="#000000" stroke-miterlimit="10" points="709.7,865 701.9,847.7 682,847.7 672.2,865.9 683,883 
	704.9,882.2 "/>
<polygon fill="#FFFFFF" stroke="#000000" stroke-miterlimit="10" points="754.6,865 746.9,847.7 726.9,847.7 717.1,865.9 727.9,883 
	749.9,882.2 "/>
<polygon fill="#FFFFFF" stroke="#000000" stroke-miterlimit="10" points="799.9,865 792.1,847.7 772.1,847.7 762.4,865.9 773.2,883 
	795.1,882.2 "/>
<polygon fill="#FFFFFF" stroke="#000000" stroke-miterlimit="10" points="844.7,865 836.9,847.7 817,847.7 807.2,865.9 818,883 
	839.9,882.2 "/>
<polygon fill="#FFFFFF" stroke="#000000" stroke-miterlimit="10" points="894.6,865 886.9,847.7 866.9,847.7 857.1,865.9 867.9,883 
	889.9,882.2 "/>
<polygon fill="#FFFFFF" stroke="#000000" stroke-miterlimit="10" points="939.9,865 932.1,847.7 912.1,847.7 902.4,865.9 913.2,883 
	935.1,882.2 "/>
<polygon fill="#FFFFFF" stroke="#000000" stroke-miterlimit="10" points="984.7,865 976.9,847.7 957,847.7 947.2,865.9 958,883 
	979.9,882.2 "/>
<polygon fill="#FFFFFF" stroke="#000000" stroke-miterlimit="10" points="1029.6,865 1021.9,847.7 1001.9,847.7 992.1,865.9 
	1002.9,883 1024.9,882.2 "/>
<polygon fill="#FFFFFF" stroke="#000000" stroke-miterlimit="10" points="1074.9,865 1067.1,847.7 1047.1,847.7 1037.4,865.9 
	1048.2,883 1070.1,882.2 "/>
<polygon fill="#FFFFFF" stroke="#000000" stroke-miterlimit="10" points="1119.7,865 1111.9,847.7 1092,847.7 1082.2,865.9 
	1093,883 1114.9,882.2 "/>
<polygon fill="#FFFFFF" stroke="#000000" stroke-miterlimit="10" points="63.3,913 55.6,895.7 35.6,895.7 25.8,913.9 36.6,931 
	58.6,930.2 "/>
<polygon fill="#FFFFFF" stroke="#000000" stroke-miterlimit="10" points="108.5,913 100.7,895.7 80.7,895.7 71,913.9 81.8,931 
	103.7,930.2 "/>
<polygon fill="#FFFFFF" stroke="#000000" stroke-miterlimit="10" points="153.4,913 145.6,895.7 125.7,895.7 115.9,913.9 126.7,931 
	148.6,930.2 "/>
<polygon fill="#FFFFFF" stroke="#000000" stroke-miterlimit="10" points="198.3,913 190.6,895.7 170.6,895.7 160.8,913.9 171.6,931 
	193.6,930.2 "/>
<polygon fill="#FFFFFF" stroke="#000000" stroke-miterlimit="10" points="243.5,913 235.7,895.7 215.7,895.7 206,913.9 216.8,931 
	238.7,930.2 "/>
<polygon fill="#FFFFFF" stroke="#000000" stroke-miterlimit="10" points="288.4,913 280.6,895.7 260.7,895.7 250.9,913.9 261.7,931 
	283.6,930.2 "/>
<polygon fill="#FFFFFF" stroke="#000000" stroke-miterlimit="10" points="338.3,913 330.6,895.7 310.6,895.7 300.8,913.9 311.6,931 
	333.6,930.2 "/>
<polygon fill="#FFFFFF" stroke="#000000" stroke-miterlimit="10" points="383.5,913 375.7,895.7 355.7,895.7 346,913.9 356.8,931 
	378.7,930.2 "/>
<polygon fill="#FFFFFF" stroke="#000000" stroke-miterlimit="10" points="428.4,913 420.6,895.7 400.7,895.7 390.9,913.9 401.7,931 
	423.6,930.2 "/>
<polygon fill="#FFFFFF" stroke="#000000" stroke-miterlimit="10" points="473.3,913 465.6,895.7 445.6,895.7 435.8,913.9 446.6,931 
	468.6,930.2 "/>
<polygon fill="#FFFFFF" stroke="#000000" stroke-miterlimit="10" points="518.5,913 510.7,895.7 490.7,895.7 481,913.9 491.8,931 
	513.7,930.2 "/>
<polygon fill="#FFFFFF" stroke="#000000" stroke-miterlimit="10" points="563.4,913 555.6,895.7 535.7,895.7 525.9,913.9 536.7,931 
	558.6,930.2 "/>
<polygon fill="#FFFFFF" stroke="#000000" stroke-miterlimit="10" points="619.6,913 611.9,895.7 591.9,895.7 582.1,913.9 592.9,931 
	614.9,930.2 "/>
<polygon fill="#FFFFFF" stroke="#000000" stroke-miterlimit="10" points="664.8,913 657,895.7 637,895.7 627.3,913.9 638.1,931 
	660,930.2 "/>
<polygon fill="#FFFFFF" stroke="#000000" stroke-miterlimit="10" points="709.7,913 701.9,895.7 682,895.7 672.2,913.9 683,931 
	704.9,930.2 "/>
<polygon fill="#FFFFFF" stroke="#000000" stroke-miterlimit="10" points="754.6,913 746.9,895.7 726.9,895.7 717.1,913.9 727.9,931 
	749.9,930.2 "/>
<polygon fill="#FFFFFF" stroke="#000000" stroke-miterlimit="10" points="799.8,913 792,895.7 772,895.7 762.3,913.9 773.1,931 
	795,930.2 "/>
<polygon fill="#FFFFFF" stroke="#000000" stroke-miterlimit="10" points="844.7,913 836.9,895.7 817,895.7 807.2,913.9 818,931 
	839.9,930.2 "/>
<polygon fill="#FFFFFF" stroke="#000000" stroke-miterlimit="10" points="894.6,913 886.9,895.7 866.9,895.7 857.1,913.9 867.9,931 
	889.9,930.2 "/>
<polygon fill="#FFFFFF" stroke="#000000" stroke-miterlimit="10" points="939.8,913 932,895.7 912,895.7 902.3,913.9 913.1,931 
	935,930.2 "/>
<polygon fill="#FFFFFF" stroke="#000000" stroke-miterlimit="10" points="984.7,913 976.9,895.7 957,895.7 947.2,913.9 958,931 
	979.9,930.2 "/>
<polygon fill="#FFFFFF" stroke="#000000" stroke-miterlimit="10" points="1029.6,913 1021.9,895.7 1001.9,895.7 992.1,913.9 
	1002.9,931 1024.9,930.2 "/>
<polygon fill="#FFFFFF" stroke="#000000" stroke-miterlimit="10" points="1074.8,913 1067,895.7 1047,895.7 1037.3,913.9 
	1048.1,931 1070,930.2 "/>
<polygon fill="#FFFFFF" stroke="#000000" stroke-miterlimit="10" points="1119.7,913 1111.9,895.7 1092,895.7 1082.2,913.9 
	1093,931 1114.9,930.2 "/>
<polygon fill="#FFFFFF" stroke="#000000" stroke-miterlimit="10" points="63.4,961 55.7,943.7 35.7,943.7 25.9,961.9 36.7,979 
	58.7,978.2 "/>
<polygon fill="#FFFFFF" stroke="#000000" stroke-miterlimit="10" points="108.7,961 100.9,943.7 80.9,943.7 71.2,961.9 82,979 
	103.9,978.2 "/>
<polygon fill="#FFFFFF" stroke="#000000" stroke-miterlimit="10" points="153.5,961 145.7,943.7 125.8,943.7 116,961.9 126.8,979 
	148.7,978.2 "/>
<polygon fill="#FFFFFF" stroke="#000000" stroke-miterlimit="10" points="198.4,961 190.7,943.7 170.7,943.7 160.9,961.9 171.7,979 
	193.7,978.2 "/>
<polygon fill="#FFFFFF" stroke="#000000" stroke-miterlimit="10" points="243.7,961 235.9,943.7 215.9,943.7 206.2,961.9 217,979 
	238.9,978.2 "/>
<polygon fill="#FFFFFF" stroke="#000000" stroke-miterlimit="10" points="288.5,961 280.7,943.7 260.8,943.7 251,961.9 261.8,979 
	283.7,978.2 "/>
<polygon fill="#FFFFFF" stroke="#000000" stroke-miterlimit="10" points="338.4,961 330.7,943.7 310.7,943.7 300.9,961.9 311.7,979 
	333.7,978.2 "/>
<polygon fill="#FFFFFF" stroke="#000000" stroke-miterlimit="10" points="383.7,961 375.9,943.7 355.9,943.7 346.2,961.9 357,979 
	378.9,978.2 "/>
<polygon fill="#FFFFFF" stroke="#000000" stroke-miterlimit="10" points="428.5,961 420.7,943.7 400.8,943.7 391,961.9 401.8,979 
	423.7,978.2 "/>
<polygon fill="#FFFFFF" stroke="#000000" stroke-miterlimit="10" points="473.4,961 465.7,943.7 445.7,943.7 435.9,961.9 446.7,979 
	468.7,978.2 "/>
<polygon fill="#FFFFFF" stroke="#000000" stroke-miterlimit="10" points="518.7,961 510.9,943.7 490.9,943.7 481.2,961.9 492,979 
	513.9,978.2 "/>
<polygon fill="#FFFFFF" stroke="#000000" stroke-miterlimit="10" points="563.5,961 555.7,943.7 535.8,943.7 526,961.9 536.8,979 
	558.7,978.2 "/>
<polygon fill="#FFFFFF" stroke="#000000" stroke-miterlimit="10" points="619.7,961 612,943.7 592,943.7 582.2,961.9 593,979 
	615,978.2 "/>
<polygon fill="#FFFFFF" stroke="#000000" stroke-miterlimit="10" points="665,961 657.2,943.7 637.2,943.7 627.5,961.9 638.3,979 
	660.2,978.2 "/>
<polygon fill="#FFFFFF" stroke="#000000" stroke-miterlimit="10" points="709.8,961 702,943.7 682.1,943.7 672.3,961.9 683.1,979 
	705,978.2 "/>
<polygon fill="#FFFFFF" stroke="#000000" stroke-miterlimit="10" points="754.7,961 747,943.7 727,943.7 717.2,961.9 728,979 
	750,978.2 "/>
<polygon fill="#FFFFFF" stroke="#000000" stroke-miterlimit="10" points="800,961 792.2,943.7 772.2,943.7 762.5,961.9 773.3,979 
	795.2,978.2 "/>
<polygon fill="#FFFFFF" stroke="#000000" stroke-miterlimit="10" points="844.8,961 837,943.7 817.1,943.7 807.3,961.9 818.1,979 
	840,978.2 "/>
<polygon fill="#FFFFFF" stroke="#000000" stroke-miterlimit="10" points="894.7,961 887,943.7 867,943.7 857.2,961.9 868,979 
	890,978.2 "/>
<polygon fill="#FFFFFF" stroke="#000000" stroke-miterlimit="10" points="940,961 932.2,943.7 912.2,943.7 902.5,961.9 913.3,979 
	935.2,978.2 "/>
<polygon fill="#FFFFFF" stroke="#000000" stroke-miterlimit="10" points="984.8,961 977,943.7 957.1,943.7 947.3,961.9 958.1,979 
	980,978.2 "/>
<polygon fill="#FFFFFF" stroke="#000000" stroke-miterlimit="10" points="1029.7,961 1022,943.7 1002,943.7 992.2,961.9 1003,979 
	1025,978.2 "/>
<polygon fill="#FFFFFF" stroke="#000000" stroke-miterlimit="10" points="1075,961 1067.2,943.7 1047.2,943.7 1037.5,961.9 
	1048.3,979 1070.2,978.2 "/>
<polygon fill="#FFFFFF" stroke="#000000" stroke-miterlimit="10" points="1119.8,961 1112,943.7 1092.1,943.7 1082.3,961.9 
	1093.1,979 1115,978.2 "/>
<polygon fill="#FFFFFF" stroke="#000000" stroke-miterlimit="10" points="63.2,1010.3 55.5,993 35.5,993 25.7,1011.2 36.5,1028.3 
	58.5,1027.6 "/>
<polygon fill="#FFFFFF" stroke="#000000" stroke-miterlimit="10" points="108.5,1010.3 100.7,993 80.7,993 71,1011.2 81.8,1028.3 
	103.7,1027.6 "/>
<polygon fill="#FFFFFF" stroke="#000000" stroke-miterlimit="10" points="153.3,1010.3 145.5,993 125.6,993 115.8,1011.2 
	126.6,1028.3 148.5,1027.6 "/>
<polygon fill="#FFFFFF" stroke="#000000" stroke-miterlimit="10" points="198.2,1010.3 190.5,993 170.5,993 160.7,1011.2 
	171.5,1028.3 193.5,1027.6 "/>
<polygon fill="#FFFFFF" stroke="#000000" stroke-miterlimit="10" points="243.5,1010.3 235.7,993 215.7,993 206,1011.2 
	216.8,1028.3 238.7,1027.6 "/>
<polygon fill="#FFFFFF" stroke="#000000" stroke-miterlimit="10" points="288.3,1010.3 280.5,993 260.6,993 250.8,1011.2 
	261.6,1028.3 283.5,1027.6 "/>
<polygon fill="#FFFFFF" stroke="#000000" stroke-miterlimit="10" points="338.2,1010.3 330.5,993 310.5,993 300.7,1011.2 
	311.5,1028.3 333.5,1027.6 "/>
<polygon fill="#FFFFFF" stroke="#000000" stroke-miterlimit="10" points="383.5,1010.3 375.7,993 355.7,993 346,1011.2 
	356.8,1028.3 378.7,1027.6 "/>
<polygon fill="#FFFFFF" stroke="#000000" stroke-miterlimit="10" points="428.3,1010.3 420.5,993 400.6,993 390.8,1011.2 
	401.6,1028.3 423.5,1027.6 "/>
<polygon fill="#FFFFFF" stroke="#000000" stroke-miterlimit="10" points="473.2,1010.3 465.5,993 445.5,993 435.7,1011.2 
	446.5,1028.3 468.5,1027.6 "/>
<polygon fill="#FFFFFF" stroke="#000000" stroke-miterlimit="10" points="518.5,1010.3 510.7,993 490.7,993 481,1011.2 
	491.8,1028.3 513.7,1027.6 "/>
<polygon fill="#FFFFFF" stroke="#000000" stroke-miterlimit="10" points="563.3,1010.3 555.5,993 535.6,993 525.8,1011.2 
	536.6,1028.3 558.5,1027.6 "/>
<polygon fill="#FFFFFF" stroke="#000000" stroke-miterlimit="10" points="619.5,1010.3 611.8,993 591.8,993 582,1011.2 
	592.8,1028.3 614.8,1027.6 "/>
<polygon fill="#FFFFFF" stroke="#000000" stroke-miterlimit="10" points="664.8,1010.3 657,993 637,993 627.3,1011.2 638.1,1028.3 
	660,1027.6 "/>
<polygon fill="#FFFFFF" stroke="#000000" stroke-miterlimit="10" points="709.6,1010.3 701.8,993 681.9,993 672.1,1011.2 
	682.9,1028.3 704.8,1027.6 "/>
<polygon fill="#FFFFFF" stroke="#000000" stroke-miterlimit="10" points="754.5,1010.3 746.8,993 726.8,993 717,1011.2 
	727.8,1028.3 749.8,1027.6 "/>
<polygon fill="#FFFFFF" stroke="#000000" stroke-miterlimit="10" points="799.8,1010.3 792,993 772,993 762.3,1011.2 773.1,1028.3 
	795,1027.6 "/>
<polygon fill="#FFFFFF" stroke="#000000" stroke-miterlimit="10" points="844.6,1010.3 836.8,993 816.9,993 807.1,1011.2 
	817.9,1028.3 839.8,1027.6 "/>
<polygon fill="#FFFFFF" stroke="#000000" stroke-miterlimit="10" points="894.5,1010.3 886.8,993 866.8,993 857,1011.2 
	867.8,1028.3 889.8,1027.6 "/>
<polygon fill="#FFFFFF" stroke="#000000" stroke-miterlimit="10" points="939.8,1010.3 932,993 912,993 902.3,1011.2 913.1,1028.3 
	935,1027.6 "/>
<polygon fill="#FFFFFF" stroke="#000000" stroke-miterlimit="10" points="984.6,1010.3 976.8,993 956.9,993 947.1,1011.2 
	957.9,1028.3 979.8,1027.6 "/>
<polygon fill="#FFFFFF" stroke="#000000" stroke-miterlimit="10" points="1029.5,1010.3 1021.8,993 1001.8,993 992,1011.2 
	1002.8,1028.3 1024.8,1027.6 "/>
<polygon fill="#FFFFFF" stroke="#000000" stroke-miterlimit="10" points="1074.8,1010.3 1067,993 1047,993 1037.3,1011.2 
	1048.1,1028.3 1070,1027.6 "/>
<polygon fill="#FFFFFF" stroke="#000000" stroke-miterlimit="10" points="1119.6,1010.3 1111.8,993 1091.9,993 1082.1,1011.2 
	1092.9,1028.3 1114.8,1027.6 "/>
<polygon fill="#FFFFFF" stroke="#000000" stroke-miterlimit="10" points="63.4,1058.3 55.7,1041.1 35.7,1041.1 25.9,1059.2 
	36.7,1076.3 58.7,1075.6 "/>
<polygon fill="#FFFFFF" stroke="#000000" stroke-miterlimit="10" points="108.6,1058.3 100.8,1041.1 80.8,1041.1 71.1,1059.2 
	81.9,1076.3 103.8,1075.6 "/>
<polygon fill="#FFFFFF" stroke="#000000" stroke-miterlimit="10" points="153.5,1058.3 145.7,1041.1 125.8,1041.1 116,1059.2 
	126.8,1076.3 148.7,1075.6 "/>
<polygon fill="#FFFFFF" stroke="#000000" stroke-miterlimit="10" points="198.4,1058.3 190.7,1041.1 170.7,1041.1 160.9,1059.2 
	171.7,1076.3 193.7,1075.6 "/>
<polygon fill="#FFFFFF" stroke="#000000" stroke-miterlimit="10" points="243.6,1058.3 235.8,1041.1 215.8,1041.1 206.1,1059.2 
	216.9,1076.3 238.8,1075.6 "/>
<polygon fill="#FFFFFF" stroke="#000000" stroke-miterlimit="10" points="288.5,1058.3 280.7,1041.1 260.8,1041.1 251,1059.2 
	261.8,1076.3 283.7,1075.6 "/>
<polygon fill="#FFFFFF" stroke="#000000" stroke-miterlimit="10" points="338.4,1058.3 330.7,1041.1 310.7,1041.1 300.9,1059.2 
	311.7,1076.3 333.7,1075.6 "/>
<polygon fill="#FFFFFF" stroke="#000000" stroke-miterlimit="10" points="383.6,1058.3 375.8,1041.1 355.8,1041.1 346.1,1059.2 
	356.9,1076.3 378.8,1075.6 "/>
<polygon fill="#FFFFFF" stroke="#000000" stroke-miterlimit="10" points="428.5,1058.3 420.7,1041.1 400.8,1041.1 391,1059.2 
	401.8,1076.3 423.7,1075.6 "/>
<polygon fill="#FFFFFF" stroke="#000000" stroke-miterlimit="10" points="473.4,1058.3 465.7,1041.1 445.7,1041.1 435.9,1059.2 
	446.7,1076.3 468.7,1075.6 "/>
<polygon fill="#FFFFFF" stroke="#000000" stroke-miterlimit="10" points="518.6,1058.3 510.8,1041.1 490.8,1041.1 481.1,1059.2 
	491.9,1076.3 513.8,1075.6 "/>
<polygon fill="#FFFFFF" stroke="#000000" stroke-miterlimit="10" points="563.5,1058.3 555.7,1041.1 535.8,1041.1 526,1059.2 
	536.8,1076.3 558.7,1075.6 "/>
<polygon fill="#FFFFFF" stroke="#000000" stroke-miterlimit="10" points="619.7,1058.3 612,1041.1 592,1041.1 582.2,1059.2 
	593,1076.3 615,1075.6 "/>
<polygon fill="#FFFFFF" stroke="#000000" stroke-miterlimit="10" points="664.9,1058.3 657.1,1041.1 637.1,1041.1 627.4,1059.2 
	638.2,1076.3 660.1,1075.6 "/>
<polygon fill="#FFFFFF" stroke="#000000" stroke-miterlimit="10" points="709.8,1058.3 702,1041.1 682.1,1041.1 672.3,1059.2 
	683.1,1076.3 705,1075.6 "/>
<polygon fill="#FFFFFF" stroke="#000000" stroke-miterlimit="10" points="754.7,1058.3 747,1041.1 727,1041.1 717.2,1059.2 
	728,1076.3 750,1075.6 "/>
<polygon fill="#FFFFFF" stroke="#000000" stroke-miterlimit="10" points="799.9,1058.3 792.1,1041.1 772.1,1041.1 762.4,1059.2 
	773.2,1076.3 795.1,1075.6 "/>
<polygon fill="#FFFFFF" stroke="#000000" stroke-miterlimit="10" points="844.8,1058.3 837,1041.1 817.1,1041.1 807.3,1059.2 
	818.1,1076.3 840,1075.6 "/>
<polygon fill="#FFFFFF" stroke="#000000" stroke-miterlimit="10" points="894.7,1058.3 887,1041.1 867,1041.1 857.2,1059.2 
	868,1076.3 890,1075.6 "/>
<polygon fill="#FFFFFF" stroke="#000000" stroke-miterlimit="10" points="939.9,1058.3 932.1,1041.1 912.1,1041.1 902.4,1059.2 
	913.2,1076.3 935.1,1075.6 "/>
<polygon fill="#FFFFFF" stroke="#000000" stroke-miterlimit="10" points="984.8,1058.3 977,1041.1 957.1,1041.1 947.3,1059.2 
	958.1,1076.3 980,1075.6 "/>
<polygon fill="#FFFFFF" stroke="#000000" stroke-miterlimit="10" points="1029.7,1058.3 1022,1041.1 1002,1041.1 992.2,1059.2 
	1003,1076.3 1025,1075.6 "/>
<polygon fill="#FFFFFF" stroke="#000000" stroke-miterlimit="10" points="1074.9,1058.3 1067.1,1041.1 1047.1,1041.1 1037.4,1059.2 
	1048.2,1076.3 1070.1,1075.6 "/>
<polygon fill="#FFFFFF" stroke="#000000" stroke-miterlimit="10" points="1119.8,1058.3 1112,1041.1 1092.1,1041.1 1082.3,1059.2 
	1093.1,1076.3 1115,1075.6 "/>
<polygon fill="#FFFFFF" stroke="#000000" stroke-miterlimit="10" points="63.3,1106.3 55.6,1089.1 35.6,1089.1 25.8,1107.2 
	36.6,1124.3 58.6,1123.6 "/>
<polygon fill="#FFFFFF" stroke="#000000" stroke-miterlimit="10" points="108.5,1106.3 100.7,1089.1 80.7,1089.1 71,1107.2 
	81.8,1124.3 103.7,1123.6 "/>
<polygon fill="#FFFFFF" stroke="#000000" stroke-miterlimit="10" points="153.4,1106.3 145.6,1089.1 125.7,1089.1 115.9,1107.2 
	126.7,1124.3 148.6,1123.6 "/>
<polygon fill="#FFFFFF" stroke="#000000" stroke-miterlimit="10" points="198.3,1106.3 190.6,1089.1 170.6,1089.1 160.8,1107.2 
	171.6,1124.3 193.6,1123.6 "/>
<polygon fill="#FFFFFF" stroke="#000000" stroke-miterlimit="10" points="243.5,1106.3 235.7,1089.1 215.7,1089.1 206,1107.2 
	216.8,1124.3 238.7,1123.6 "/>
<polygon fill="#FFFFFF" stroke="#000000" stroke-miterlimit="10" points="288.4,1106.3 280.6,1089.1 260.7,1089.1 250.9,1107.2 
	261.7,1124.3 283.6,1123.6 "/>
<polygon fill="#FFFFFF" stroke="#000000" stroke-miterlimit="10" points="338.3,1106.3 330.6,1089.1 310.6,1089.1 300.8,1107.2 
	311.6,1124.3 333.6,1123.6 "/>
<polygon fill="#FFFFFF" stroke="#000000" stroke-miterlimit="10" points="383.5,1106.3 375.7,1089.1 355.7,1089.1 346,1107.2 
	356.8,1124.3 378.7,1123.6 "/>
<polygon fill="#FFFFFF" stroke="#000000" stroke-miterlimit="10" points="428.4,1106.3 420.6,1089.1 400.7,1089.1 390.9,1107.2 
	401.7,1124.3 423.6,1123.6 "/>
<polygon fill="#FFFFFF" stroke="#000000" stroke-miterlimit="10" points="473.3,1106.3 465.6,1089.1 445.6,1089.1 435.8,1107.2 
	446.6,1124.3 468.6,1123.6 "/>
<polygon fill="#FFFFFF" stroke="#000000" stroke-miterlimit="10" points="518.5,1106.3 510.7,1089.1 490.7,1089.1 481,1107.2 
	491.8,1124.3 513.7,1123.6 "/>
<polygon fill="#FFFFFF" stroke="#000000" stroke-miterlimit="10" points="563.4,1106.3 555.6,1089.1 535.7,1089.1 525.9,1107.2 
	536.7,1124.3 558.6,1123.6 "/>
<polygon fill="#FFFFFF" stroke="#000000" stroke-miterlimit="10" points="619.6,1106.3 611.9,1089.1 591.9,1089.1 582.1,1107.2 
	592.9,1124.3 614.9,1123.6 "/>
<polygon fill="#FFFFFF" stroke="#000000" stroke-miterlimit="10" points="664.8,1106.3 657,1089.1 637,1089.1 627.3,1107.2 
	638.1,1124.3 660,1123.6 "/>
<polygon fill="#FFFFFF" stroke="#000000" stroke-miterlimit="10" points="709.7,1106.3 701.9,1089.1 682,1089.1 672.2,1107.2 
	683,1124.3 704.9,1123.6 "/>
<polygon fill="#FFFFFF" stroke="#000000" stroke-miterlimit="10" points="754.6,1106.3 746.9,1089.1 726.9,1089.1 717.1,1107.2 
	727.9,1124.3 749.9,1123.6 "/>
<polygon fill="#FFFFFF" stroke="#000000" stroke-miterlimit="10" points="799.8,1106.3 792,1089.1 772,1089.1 762.3,1107.2 
	773.1,1124.3 795,1123.6 "/>
<polygon fill="#FFFFFF" stroke="#000000" stroke-miterlimit="10" points="844.7,1106.3 836.9,1089.1 817,1089.1 807.2,1107.2 
	818,1124.3 839.9,1123.6 "/>
<polygon fill="#FFFFFF" stroke="#000000" stroke-miterlimit="10" points="894.6,1106.3 886.9,1089.1 866.9,1089.1 857.1,1107.2 
	867.9,1124.3 889.9,1123.6 "/>
<polygon fill="#FFFFFF" stroke="#000000" stroke-miterlimit="10" points="939.8,1106.3 932,1089.1 912,1089.1 902.3,1107.2 
	913.1,1124.3 935,1123.6 "/>
<polygon fill="#FFFFFF" stroke="#000000" stroke-miterlimit="10" points="984.7,1106.3 976.9,1089.1 957,1089.1 947.2,1107.2 
	958,1124.3 979.9,1123.6 "/>
<polygon fill="#FFFFFF" stroke="#000000" stroke-miterlimit="10" points="1029.6,1106.3 1021.9,1089.1 1001.9,1089.1 992.1,1107.2 
	1002.9,1124.3 1024.9,1123.6 "/>
<polygon fill="#FFFFFF" stroke="#000000" stroke-miterlimit="10" points="1074.8,1106.3 1067,1089.1 1047,1089.1 1037.3,1107.2 
	1048.1,1124.3 1070,1123.6 "/>
<polygon fill="#FFFFFF" stroke="#000000" stroke-miterlimit="10" points="1119.7,1106.3 1111.9,1089.1 1092,1089.1 1082.2,1107.2 
	1093,1124.3 1114.9,1123.6 "/>
<polygon fill="#FFFFFF" stroke="#000000" stroke-miterlimit="10" points="63.4,1154.3 55.7,1137.1 35.7,1137.1 25.9,1155.2 
	36.7,1172.3 58.7,1171.6 "/>
<polygon fill="#FFFFFF" stroke="#000000" stroke-miterlimit="10" points="108.7,1154.3 100.9,1137.1 80.9,1137.1 71.2,1155.2 
	82,1172.3 103.9,1171.6 "/>
<polygon fill="#FFFFFF" stroke="#000000" stroke-miterlimit="10" points="153.5,1154.3 145.7,1137.1 125.8,1137.1 116,1155.2 
	126.8,1172.3 148.7,1171.6 "/>
<polygon fill="#FFFFFF" stroke="#000000" stroke-miterlimit="10" points="198.4,1154.3 190.7,1137.1 170.7,1137.1 160.9,1155.2 
	171.7,1172.3 193.7,1171.6 "/>
<polygon fill="#FFFFFF" stroke="#000000" stroke-miterlimit="10" points="243.7,1154.3 235.9,1137.1 215.9,1137.1 206.2,1155.2 
	217,1172.3 238.9,1171.6 "/>
<polygon fill="#FFFFFF" stroke="#000000" stroke-miterlimit="10" points="288.5,1154.3 280.7,1137.1 260.8,1137.1 251,1155.2 
	261.8,1172.3 283.7,1171.6 "/>
<polygon fill="#FFFFFF" stroke="#000000" stroke-miterlimit="10" points="338.4,1154.3 330.7,1137.1 310.7,1137.1 300.9,1155.2 
	311.7,1172.3 333.7,1171.6 "/>
<polygon fill="#FFFFFF" stroke="#000000" stroke-miterlimit="10" points="383.7,1154.3 375.9,1137.1 355.9,1137.1 346.2,1155.2 
	357,1172.3 378.9,1171.6 "/>
<polygon fill="#FFFFFF" stroke="#000000" stroke-miterlimit="10" points="428.5,1154.3 420.7,1137.1 400.8,1137.1 391,1155.2 
	401.8,1172.3 423.7,1171.6 "/>
<polygon fill="#FFFFFF" stroke="#000000" stroke-miterlimit="10" points="473.4,1154.3 465.7,1137.1 445.7,1137.1 435.9,1155.2 
	446.7,1172.3 468.7,1171.6 "/>
<polygon fill="#FFFFFF" stroke="#000000" stroke-miterlimit="10" points="518.7,1154.3 510.9,1137.1 490.9,1137.1 481.2,1155.2 
	492,1172.3 513.9,1171.6 "/>
<polygon fill="#FFFFFF" stroke="#000000" stroke-miterlimit="10" points="563.5,1154.3 555.7,1137.1 535.8,1137.1 526,1155.2 
	536.8,1172.3 558.7,1171.6 "/>
<polygon fill="#FFFFFF" stroke="#000000" stroke-miterlimit="10" points="619.7,1154.3 612,1137.1 592,1137.1 582.2,1155.2 
	593,1172.3 615,1171.6 "/>
<polygon fill="#FFFFFF" stroke="#000000" stroke-miterlimit="10" points="665,1154.3 657.2,1137.1 637.2,1137.1 627.5,1155.2 
	638.3,1172.3 660.2,1171.6 "/>
<polygon fill="#FFFFFF" stroke="#000000" stroke-miterlimit="10" points="709.8,1154.3 702,1137.1 682.1,1137.1 672.3,1155.2 
	683.1,1172.3 705,1171.6 "/>
<polygon fill="#FFFFFF" stroke="#000000" stroke-miterlimit="10" points="754.7,1154.3 747,1137.1 727,1137.1 717.2,1155.2 
	728,1172.3 750,1171.6 "/>
<polygon fill="#FFFFFF" stroke="#000000" stroke-miterlimit="10" points="800,1154.3 792.2,1137.1 772.2,1137.1 762.5,1155.2 
	773.3,1172.3 795.2,1171.6 "/>
<polygon fill="#FFFFFF" stroke="#000000" stroke-miterlimit="10" points="844.8,1154.3 837,1137.1 817.1,1137.1 807.3,1155.2 
	818.1,1172.3 840,1171.6 "/>
<polygon fill="#FFFFFF" stroke="#000000" stroke-miterlimit="10" points="894.7,1154.3 887,1137.1 867,1137.1 857.2,1155.2 
	868,1172.3 890,1171.6 "/>
<polygon fill="#FFFFFF" stroke="#000000" stroke-miterlimit="10" points="940,1154.3 932.2,1137.1 912.2,1137.1 902.5,1155.2 
	913.3,1172.3 935.2,1171.6 "/>
<polygon fill="#FFFFFF" stroke="#000000" stroke-miterlimit="10" points="984.8,1154.3 977,1137.1 957.1,1137.1 947.3,1155.2 
	958.1,1172.3 980,1171.6 "/>
<polygon fill="#FFFFFF" stroke="#000000" stroke-miterlimit="10" points="1029.7,1154.3 1022,1137.1 1002,1137.1 992.2,1155.2 
	1003,1172.3 1025,1171.6 "/>
<polygon fill="#FFFFFF" stroke="#000000" stroke-miterlimit="10" points="1075,1154.3 1067.2,1137.1 1047.2,1137.1 1037.5,1155.2 
	1048.3,1172.3 1070.2,1171.6 "/>
<polygon fill="#FFFFFF" stroke="#000000" stroke-miterlimit="10" points="1119.8,1154.3 1112,1137.1 1092.1,1137.1 1082.3,1155.2 
	1093.1,1172.3 1115,1171.6 "/>
</svg>
